<?xml version="1.0" standalone="no"?>
<!-- Generator: Paintmaps.com , Online SVG vector map maker -->
<svg xmlns="http://www.w3.org/2000/svg" version="1.1" baseProfile="full" width="800" height="533" style="background-color:false">
<path d="M 432.6742 474.7358 L 433.5662 475.77 L 432.4415 477.1145 L 431.0065 477.735 L 429.9594 479.7 L 429.8431 477.1145 L 432.6742 474.7358 Z M 431.3556 474.5807 L 430.8514 472.8226 L 431.3944 471.7884 L 432.3639 472.3055 L 431.3556 474.5807 Z M 424.9953 465.428 L 425.7709 466.1003 L 425.0341 467.031 L 424.5687 466.6174 L 424.9953 465.428 Z M 439.3448 457.2579 L 439.1121 458.0335 L 438.1813 457.413 L 438.0262 455.9134 L 439.3448 457.2579 Z M 425.0341 456.6374 L 424.7238 456.4822 L 424.7626 455.3963 L 426.0036 455.2412 L 425.0341 456.6374 Z M 432.0149 455.0861 L 432.2088 456.3788 L 433.0232 457.1027 L 433.6438 459.4814 L 432.3252 460.3088 L 432.4027 457.2579 L 430.7351 455.2929 L 428.7959 455.9134 L 430.1921 453.9484 L 431.3168 454.0519 L 432.0149 455.0861 Z M 439.1121 453.6899 L 438.3752 454.6207 L 437.6771 454.0001 L 438.8794 451.5181 L 439.1121 453.6899 Z M 433.2171 447.7432 L 432.5966 448.5189 L 432.2476 447.1744 L 433.3335 447.1227 L 433.2171 447.7432 Z M 433.4111 441.8483 L 432.9069 442.7791 L 432.2864 442.0034 L 431.2392 443.2445 L 431.6271 439.9868 L 432.4415 439.2111 L 432.4027 437.7632 L 433.605 435.2294 L 434.3031 436.7807 L 433.8377 437.1427 L 433.4111 441.8483 Z M 439.1896 435.2294 L 439.4611 436.1085 L 438.9957 441.3312 L 436.7076 439.6248 L 435.8156 438.332 L 436.1258 437.2978 L 435.5441 436.3154 L 435.8544 435.3329 L 439.1896 435.2294 Z M 428.2918 436.3154 L 429.1062 439.0043 L 428.4081 438.5389 L 427.2834 436.0568 L 427.1283 434.1952 L 428.2918 436.3154 Z M 438.6467 430.4721 L 439.5387 430.6273 L 441.7105 432.0234 L 439.8102 432.1786 L 437.7159 433.161 L 437.5608 430.8858 L 436.9015 430.2653 L 436.7076 428.352 L 437.6383 428.8691 L 438.6467 430.4721 Z M 429.3389 426.0768 L 430.1921 426.2836 L 430.1921 427.4212 L 428.9899 426.9559 L 427.9427 425.5597 L 428.7959 424.0084 L 429.9206 424.6806 L 429.3389 426.0768 Z M 429.3001 422.302 L 428.6408 422.302 L 427.3998 423.543 L 425.9648 423.543 L 425.8485 422.2503 L 427.3222 421.4746 L 428.0979 422.4571 L 428.8735 420.9058 L 429.3001 422.302 Z M 438.414 421.2678 L 437.6771 420.9575 L 438.2589 418.9408 L 438.6079 419.7165 L 438.414 421.2678 Z M 433.4498 419.1477 L 432.2864 418.8374 L 432.8681 417.5447 L 433.605 418.6306 L 433.4498 419.1477 Z M 436.0483 417.5964 L 436.5912 418.5789 L 437.173 416.8724 L 437.5996 417.9583 L 437.4832 419.7165 L 435.8156 422.4054 L 434.9236 423.181 L 433.8764 422.9225 L 434.5358 420.9058 L 434.5745 418.9408 L 433.8764 416.9758 L 434.1867 414.9592 L 436.1646 416.0968 L 436.0483 417.5964 Z M 433.7601 405.9099 L 433.8764 409.7882 L 432.6354 405.1343 L 432.5966 403.221 L 433.1784 403.3244 L 433.7601 405.9099 Z M 422.9398 364.9557 L 422.9398 364.9557 L 424.6074 362.7321 L 425.3055 360.4569 L 427.71 359.9915 L 430.037 362.4219 L 431.6271 362.4219 L 432.2864 364.0766 L 432.7518 366.6621 L 433.9152 368.6271 L 436.5524 371.2126 L 437.871 373.281 L 439.3836 376.487 L 440.3531 377.728 L 442.0595 378.9691 L 442.874 378.9173 L 443.8823 380.5204 L 448.0708 383.5195 L 448.2647 384.4503 L 449.6609 386.5187 L 451.3285 388.1734 L 451.6776 390.4487 L 452.6471 391.5863 L 452.6471 394.5854 L 453.4228 398.1017 L 453.1125 400.9975 L 453.4616 402.6522 L 451.5225 403.9449 L 451.3285 406.9958 L 452.6084 407.9783 L 453.0738 411.4429 L 453.927 412.5805 L 454.0045 413.925 L 455.4007 415.4763 L 457.9991 417.1827 L 458.2706 418.1135 L 457.844 420.0267 L 458.5809 421.8883 L 458.8523 423.905 L 459.3953 424.8358 L 459.5892 427.7832 L 461.3732 427.6281 L 460.7527 430.0585 L 461.9937 431.1961 L 461.5671 433.0059 L 463.2348 434.8158 L 462.7306 436.8842 L 461.0629 439.056 L 459.0463 439.8316 L 458.7748 442.1069 L 457.6501 443.503 L 457.3786 444.8475 L 456.2927 446.0885 L 454.7026 448.9326 L 454.0045 451.001 L 450.9795 453.483 L 450.5141 454.6724 L 449.3119 454.4138 L 448.8853 455.0861 L 448.7301 457.413 L 447.1788 457.6716 L 445.5112 458.8092 L 444.115 460.5156 L 443.6884 462.0152 L 444.658 464.3421 L 443.6496 468.2204 L 442.5249 471.1161 L 441.3615 472.6674 L 440.1592 475.2529 L 439.1121 476.494 L 438.6079 475.5632 L 438.4528 472.8743 L 437.9486 471.5298 L 438.8018 467.9101 L 438.0262 465.8934 L 438.065 463.5148 L 437.3669 461.8601 L 437.2505 459.8951 L 438.6467 459.3263 L 439.5775 459.6365 L 441.09 456.8442 L 440.0041 456.1203 L 441.4778 455.2929 L 442.9128 455.1378 L 443.0679 453.8967 L 442.4862 453.2245 L 443.1067 452.3971 L 442.7576 451.2078 L 441.7105 450.4322 L 443.1842 449.8634 L 443.9599 447.2779 L 442.6025 444.5889 L 442.9903 443.2962 L 444.3089 443.0894 L 443.8435 441.5381 L 443.0291 441.3312 L 443.8048 437.9184 L 445.2397 438.0218 L 445.3561 437.2978 L 446.9073 437.6081 L 446.5583 436.9359 L 444.1538 436.1085 L 442.9128 436.6256 L 442.2922 437.8667 L 440.5082 436.2636 L 442.5249 433.1093 L 439.306 433.4196 L 439.9653 432.7991 L 441.439 432.6957 L 443.1067 431.4546 L 442.9515 429.2311 L 441.1675 428.5589 L 441.1288 427.3178 L 442.874 425.9734 L 442.5637 425.146 L 440.3531 426.2319 L 439.1121 425.146 L 439.3836 424.2669 L 442.1371 423.4913 L 442.6413 422.3537 L 440.547 420.9058 L 440.8185 419.5613 L 442.874 418.9408 L 440.9736 417.9583 L 442.4474 414.0284 L 441.09 413.4079 L 441.5942 412.4771 L 441.2063 410.6155 L 440.2368 409.6847 L 440.7797 408.9091 L 440.1592 407.4612 L 440.0041 403.583 L 437.8323 401.4112 L 436.7851 396.9641 L 435.1563 394.9991 L 433.8764 392.5688 L 433.954 391.8965 L 432.6742 391.5863 L 432.9069 389.6213 L 432.4415 386.9324 L 432.4415 385.0191 L 431.4332 383.5712 L 431.7046 385.1742 L 431.278 386.7773 L 431.7046 388.0183 L 431.2392 391.1209 L 431.5495 392.9824 L 431.0453 395.5679 L 430.1533 394.5337 L 430.8126 392.1034 L 429.5716 391.8448 L 429.2613 389.7247 L 429.7267 389.8281 L 429.7655 387.2944 L 429.145 386.7773 L 428.6796 384.8123 L 429.7267 382.0199 L 427.2059 377.4695 L 426.8568 374.884 L 424.8789 370.0749 L 425.3055 368.8339 L 426.1587 368.6271 L 427.9815 370.2818 L 426.3139 366.8172 L 425.8873 367.8514 L 423.9481 368.2134 L 422.9398 364.9557 Z" fill="#000000" fill-opacity="1" stroke="#000000" stroke-width="0" paint-order="fill" stroke-opacity="1" stroke-dasharray="" stroke-linecap="butt" stroke-linejoin="miter" stroke-miterlimit="10" transform="matrix(1.100000023841858,0,0,1.100000023841858,-40.0000114440918,-26.649986267089844)" clip-path="none" style="filter: url(#f1)"/>
<path d="M 437.4832 423.0259 L 436.8627 422.6639 L 437.7547 421.7332 L 438.0262 422.5605 L 437.4832 423.0259 Z" fill="#000000" fill-opacity="1" stroke="#000000" stroke-width="0" paint-order="fill" stroke-opacity="1" stroke-dasharray="" stroke-linecap="butt" stroke-linejoin="miter" stroke-miterlimit="10" transform="matrix(1.100000023841858,0,0,1.100000023841858,-40.0000114440918,-26.649986267089844)" clip-path="none" style="filter: url(#f1)"/>
<path d="M 418.2471 334.2917 L 417.0449 334.6019 L 416.9285 333.6195 L 415.8038 332.4818 L 416.3856 331.0857 L 415.6875 329.1207 L 417.2 327.7245 L 419.0228 328.345 L 418.2471 334.2917 Z M 422.9398 364.9557 L 423.4052 363.1458 L 422.4744 361.8014 L 423.2501 361.4911 L 423.2501 358.2334 L 421.8539 356.1133 L 421.5049 354.4586 L 422.9786 352.9073 L 422.2805 350.994 L 422.552 350.1149 L 421.8927 348.4085 L 421.2722 341.9448 L 418.441 339.1524 L 418.2083 337.5494 L 419.2555 336.5669 L 419.9536 332.9472 L 419.4494 331.3442 L 419.4882 329.4309 L 420.0311 327.8279 L 421.9702 326.6386 L 422.9398 327.5694 L 424.2196 327.1557 L 424.4911 328.2416 L 425.8485 329.6378 L 427.2059 329.6895 L 427.71 331.8096 L 429.3001 333.1024 L 430.4248 334.9122 L 430.4248 335.7396 L 429.0674 336.6186 L 427.6713 335.9464 L 423.7154 336.3601 L 424.5687 338.3768 L 424.0257 340.2383 L 424.0645 342.7204 L 424.9953 345.6162 L 424.8014 346.8572 L 426.3914 347.8397 L 428.4081 350.7871 L 430.2309 354.0449 L 431.5107 355.2859 L 431.9761 357.2509 L 431.0453 359.371 L 431.7822 361.0774 L 431.6271 362.4219 L 430.037 362.4219 L 427.71 359.9915 L 425.3055 360.4569 L 424.6074 362.7321 L 422.9398 364.9557 Z M 421.1558 326.3284 L 419.1779 327.3108 L 417.7817 327.104 L 414.6404 327.5694 L 413.9035 328.345 L 413.0891 323.8463 L 412.6625 324.4668 L 411.4602 323.4326 L 410.9172 321.7779 L 411.2663 320.692 L 410.7233 318.7787 L 409.9477 318.3133 L 410.2967 316.5552 L 409.4047 314.5385 L 410.8397 313.6594 L 409.4435 313.556 L 408.823 314.6936 L 408.2025 313.4526 L 408.3964 312.1598 L 407.5432 310.7637 L 404.014 307.9196 L 403.5874 306.0064 L 403.7813 302.6969 L 406.1858 302.6452 L 408.3964 304.4551 L 408.5903 305.4375 L 410.4131 304.8687 L 411.1887 304.0931 L 412.2746 302.8521 L 413.0891 303.1106 L 414.4464 300.4734 L 415.1445 300.37 L 414.4464 301.9213 L 414.9506 303.5243 L 415.9977 304.6102 L 415.6875 305.8512 L 416.308 307.9196 L 417.3163 309.8846 L 416.9673 310.5568 L 417.5103 313.7111 L 416.5407 314.9005 L 416.2304 317.0206 L 416.7734 319.2958 L 417.9369 321.3125 L 418.0144 322.8121 L 420.225 325.7078 L 421.1558 326.3284 Z" fill="#000000" fill-opacity="1" stroke="#000000" stroke-width="0" paint-order="fill" stroke-opacity="1" stroke-dasharray="" stroke-linecap="butt" stroke-linejoin="miter" stroke-miterlimit="10" transform="matrix(1.100000023841858,0,0,1.100000023841858,-40.0000114440918,-26.649986267089844)" clip-path="none" style="filter: url(#f1)"/>
<path d="M 335.2915 272.3432 L 336.5325 272.3432 L 336.8428 274.9804 L 335.7569 276.7903 L 334.3219 276.6351 L 331.2581 272.8603 L 330.9866 272.0846 L 333.0033 271.9812 L 333.9729 271.3607 L 335.2915 272.3432 Z M 338.2777 258.2781 L 339.9066 258.5366 L 341.8069 259.9845 L 341.6906 261.2256 L 339.4412 263.0354 L 338.1226 263.0871 L 334.8261 258.0713 L 335.8732 256.5717 L 336.7652 256.7268 L 338.2777 258.2781 Z M 332.3828 251.8144 L 330.7539 250.625 L 330.0559 247.3156 L 330.8703 247.7293 L 332.1889 249.2806 L 332.3828 251.8144 Z M 321.8728 249.9528 L 321.5625 248.5049 L 319.5846 244.4198 L 320.399 244.3164 L 321.7176 248.143 L 321.8728 249.9528 Z M 341.264 230.5616 L 341.1864 233.3539 L 343.2031 234.5432 L 346.3445 240.2313 L 347.3528 243.0237 L 348.3612 244.3164 L 348.4775 246.4882 L 349.9125 248.0395 L 349.7186 251.0904 L 350.533 253.0554 L 351.6577 259.4674 L 354.2561 263.8628 L 353.7519 265.3106 L 354.4888 267.6376 L 355.8074 268.2064 L 356.8157 269.3957 L 357.5526 271.2573 L 359.3366 273.7394 L 357.5526 274.7219 L 358.9876 276.9454 L 357.9792 279.0138 L 358.5609 280.5651 L 358.2507 282.1681 L 359.4529 284.3399 L 359.7632 284.7019 L 359.7632 284.7019 L 359.7632 284.7019 L 359.7632 284.7019 L 359.7632 284.7019 L 360.6552 286.5634 L 360.8879 288.787 L 360.4613 290.5451 L 360.4225 292.9237 L 360.0735 294.5268 L 360.9655 296.2849 L 360.4613 299.0772 L 358.8324 301.4559 L 358.5222 305.0756 L 357.2811 307.2991 L 353.5192 305.0239 L 353.4029 302.2832 L 354.5664 303.1623 L 353.4029 300.008 L 353.1314 298.5084 L 352.2394 297.5776 L 351.9292 294.9404 L 351.1923 293.2857 L 352.1618 292.0964 L 351.9679 290.5451 L 350.8045 287.0805 L 349.0593 286.9254 L 348.7878 285.8395 L 350.7269 285.4775 L 349.3307 284.0296 L 348.9429 282.8403 L 347.1589 280.2031 L 347.508 280.0997 L 347.2753 277.9279 L 345.181 275.8078 L 346.5772 275.6009 L 345.3361 273.7394 L 344.6381 273.8428 L 342.8928 272.8086 L 343.2807 271.0504 L 343.048 269.6026 L 343.5134 268.103 L 342.8928 267.5859 L 343.4358 264.4833 L 343.3582 262.6217 L 342.8928 263.0354 L 343.0092 264.897 L 341.6906 266.1897 L 340.9537 264.8453 L 340.3332 265.4658 L 341.3028 266.6551 L 341.1864 268.7752 L 341.7682 269.9645 L 341.5742 271.309 L 340.5659 272.7569 L 338.1226 270.7402 L 335.2915 268.9303 L 334.5934 266.2414 L 333.5851 265.2589 L 331.6072 262.0529 L 331.3745 260.2431 L 332.887 259.4157 L 334.0892 260.0879 L 334.2831 261.691 L 336.2998 262.6734 L 336.4162 263.2423 L 338.7819 264.0179 L 340.8762 262.6734 L 342.156 260.7085 L 342.1172 258.9503 L 340.8374 258.9503 L 341.1476 258.2781 L 339.9842 257.9678 L 336.8428 254.917 L 338.937 253.0037 L 338.5104 252.3832 L 337.5021 253.9862 L 334.8649 251.9178 L 334.128 252.9003 L 334.1668 251.4007 L 335.4854 249.4357 L 337.153 249.1772 L 337.347 248.4532 L 334.4771 248.4532 L 333.779 249.1254 L 332.4992 247.7293 L 332.6931 246.3848 L 330.9866 247.419 L 330.2886 246.7985 L 329.5517 244.213 L 329.4353 245.5575 L 328.8148 243.851 L 327.3411 245.0921 L 324.3161 244.3681 L 325.2081 247.1088 L 326.4103 249.6425 L 325.9837 249.8494 L 324.6263 246.2297 L 323.8119 246.178 L 323.6955 247.6259 L 324.2385 249.9011 L 322.726 247.1605 L 322.5321 246.1263 L 321.0195 243.9545 L 320.942 242.972 L 323.618 242.61 L 324.2385 241.1104 L 321.9891 242.5583 L 321.4074 242.4032 L 321.7176 240.4899 L 322.6484 238.4215 L 322.5321 236.1463 L 323.7343 233.871 L 323.5016 233.3539 L 322.3382 235.6292 L 322.2994 237.5424 L 321.6013 239.404 L 319.4295 242.7651 L 318.615 243.0237 L 316.7923 241.1621 L 317.4128 239.8694 L 319.4683 238.3181 L 318.3823 236.9219 L 318.266 234.8535 L 316.5983 234.3881 L 316.3269 232.8885 L 314.8531 230.1479 L 314.3102 229.6825 L 315.6676 232.268 L 316.2493 235.5774 L 315.939 239.8177 L 314.4265 236.0945 L 312.0996 233.509 L 311.7505 232.0612 L 310.3932 230.1996 L 308.8806 229.424 L 307.4845 224.3564 L 307.0191 223.4256 L 306.864 221.3055 L 304.9636 218.3063 L 305.2739 215.1003 L 306.5149 212.8768 L 307.5233 212.8768 L 308.3765 211.8943 L 309.3073 212.5665 L 309.5399 213.7559 L 310.3932 214.2212 L 312.565 214.3764 L 313.1855 216.755 L 313.8448 217.0136 L 314.9695 215.7208 L 315.5512 216.0311 L 317.7618 219.2888 L 318.8477 221.6158 L 319.5846 222.0812 L 320.8256 221.2538 L 325.1693 222.1846 L 325.6347 225.0286 L 326.9533 226.4765 L 327.7289 227.9761 L 332.1113 230.9236 L 335.0976 231.1821 L 336.6101 230.0962 L 336.0671 228.8034 L 336.1059 226.8902 L 336.8428 226.0628 L 338.1226 226.6316 L 339.1697 229.1137 L 340.2556 229.424 L 341.264 230.5616 Z M 359.7632 284.7019 L 359.7632 284.7019 L 359.7632 284.7019 L 359.7632 284.7019 Z M 359.7632 284.7019 L 359.7632 284.7019 L 359.7632 284.7019 L 359.7632 284.7019 Z" fill="#000000" fill-opacity="1" stroke="#000000" stroke-width="0" paint-order="fill" stroke-opacity="1" stroke-dasharray="" stroke-linecap="butt" stroke-linejoin="miter" stroke-miterlimit="10" transform="matrix(1.100000023841858,0,0,1.100000023841858,-40.0000114440918,-26.649986267089844)" clip-path="none" style="filter: url(#f1)"/>
<path d="M 357.8241 343.1858 L 356.1177 342.8238 L 358.3283 339.8246 L 358.6773 341.3759 L 357.8241 343.1858 Z M 349.2532 342.0482 L 349.4471 341.3242 L 348.7102 339.049 L 348.9041 338.3768 L 350.9984 337.0323 L 351.774 335.6879 L 354.5276 332.8955 L 355.0317 334.6019 L 354.1785 336.722 L 353.0538 338.1699 L 350.8045 339.1524 L 349.2532 342.0482 Z M 361.3921 283.5125 L 362.5943 283.5125 L 363.5639 284.495 L 365.1152 284.3916 L 365.6969 282.5301 L 366.6665 282.2715 L 369.4588 285.7878 L 371.4755 287.8562 L 372.8329 292.4066 L 372.7165 294.1648 L 373.6473 295.1473 L 373.4146 297.2157 L 372.7553 297.9396 L 372.8717 299.3875 L 374.1127 301.5076 L 376.9438 302.8003 L 378.9993 305.541 L 377.7583 309.2124 L 378.0685 311.3842 L 379.9301 313.4526 L 381.0935 315.4176 L 381.2875 316.7103 L 382.2182 318.3133 L 381.4814 320.2783 L 382.2182 322.0364 L 381.2099 324.1048 L 381.7528 326.3801 L 380.5118 328.0348 L 382.0243 329.6895 L 384.5064 330.3617 L 385.5535 331.9647 L 383.6144 333.9297 L 382.0631 334.1366 L 381.6753 333.4126 L 379.6198 335.6361 L 378.7278 335.5844 L 378.0685 333.8263 L 378.2236 336.0498 L 377.2541 337.808 L 376.6723 340.0315 L 373.531 343.3409 L 371.5143 344.8922 L 370.2345 345.3059 L 368.528 344.9956 L 368.2953 342.4618 L 369.5364 340.5486 L 370.2345 337.9114 L 369.7691 336.4118 L 369.6527 339.1524 L 368.6444 340.9623 L 367.3646 341.1174 L 368.1402 338.687 L 367.0543 340.6003 L 367.0155 343.0824 L 365.8908 343.7546 L 364.8825 342.8755 L 364.6886 341.1174 L 365.1927 338.5319 L 364.3395 338.1182 L 365.2703 336.4118 L 367.1707 335.9981 L 365.0764 335.3259 L 363.7578 336.9806 L 363.7966 339.3593 L 363.3312 342.1516 L 361.586 344.0131 L 358.7549 343.3409 L 359.7244 342.5653 L 358.91 342.255 L 358.6773 339.4627 L 359.802 338.1699 L 359.259 336.0498 L 359.802 334.7054 L 361.586 333.6195 L 359.9571 333.9297 L 359.1039 334.9122 L 359.3754 337.6528 L 357.5526 339.411 L 356.0401 341.7896 L 354.6827 341.7896 L 353.4805 340.29 L 355.7298 338.8939 L 357.126 336.4118 L 357.1648 335.3776 L 355.7686 338.0148 L 353.7907 339.7729 L 352.6272 339.3593 L 354.4112 337.446 L 355.2644 335.7396 L 355.4196 333.7229 L 355.0317 332.637 L 356.3116 329.8446 L 356.0013 327.7245 L 356.6218 326.5352 L 355.2644 326.8455 L 355.4971 330.1549 L 354.5664 331.9647 L 353.209 332.8955 L 353.2478 332.1716 L 351.774 331.8613 L 351.5413 334.0848 L 349.7573 336.722 L 348.2836 337.1874 L 347.8182 338.4285 L 345.8403 338.9973 L 345.0647 337.9114 L 345.181 334.6537 L 345.724 332.0164 L 345.724 330.31 L 346.2281 329.4309 L 346.616 326.0181 L 347.8958 326.2249 L 347.857 324.4668 L 348.5939 323.7946 L 348.7102 322.295 L 349.5634 320.33 L 349.098 318.0548 L 350.9984 316.7103 L 350.882 314.3834 L 351.6189 312.7286 L 351.1535 311.2291 L 352.1231 311.6944 L 352.2006 309.2641 L 352.9763 308.2816 L 353.9846 308.9021 L 353.5192 305.0239 L 357.2811 307.2991 L 358.5222 305.0756 L 358.8324 301.4559 L 360.4613 299.0772 L 360.9655 296.2849 L 360.0735 294.5268 L 360.4225 292.9237 L 360.4613 290.5451 L 360.8879 288.787 L 360.6552 286.5634 L 359.7632 284.7019 L 359.7632 284.7019 L 361.3921 283.5125 Z" fill="#000000" fill-opacity="1" stroke="#000000" stroke-width="0" paint-order="fill" stroke-opacity="1" stroke-dasharray="" stroke-linecap="butt" stroke-linejoin="miter" stroke-miterlimit="10" transform="matrix(1.100000023841858,0,0,1.100000023841858,-40.0000114440918,-26.649986267089844)" clip-path="none" style="filter: url(#f1)"/>
<path d="M 314.9695 215.7208 L 314.0775 211.3772 L 313.9999 205.896 L 314.5041 202.4314 L 314.2326 200.3113 L 315.8227 199.4322 L 316.6759 196.3813 L 318.4599 197.5707 L 320.1276 199.4839 L 320.3602 200.8284 L 321.2135 199.6908 L 322.726 200.2596 L 322.5321 198.7083 L 323.8119 197.6224 L 323.8894 195.554 L 326.3327 196.0194 L 325.9837 194.9852 L 326.9533 194.6749 L 327.0308 191.4689 L 325.7122 188.5214 L 325.9449 186.1428 L 325.2856 184.3846 L 325.5571 182.5231 L 327.6513 180.1444 L 326.992 177.2487 L 327.3411 176.2662 L 328.2331 176.2145 L 329.2414 177.4038 L 330.3661 177.0935 L 332.0338 174.6114 L 332.3828 170.4229 L 332.9258 169.699 L 332.8482 167.2169 L 333.7014 162.8216 L 333.236 161.1669 L 332.5767 160.7015 L 332.344 156.8232 L 331.5684 155.5305 L 331.3745 153.6689 L 331.8011 152.8416 L 332.7706 152.8933 L 334.4771 155.6856 L 337.7348 154.7031 L 340.4496 155.1168 L 341.6518 156.513 L 343.3195 156.3578 L 345.6852 157.0818 L 347.7406 158.8916 L 348.3612 158.6331 L 349.0593 162.3045 L 348.3612 166.7515 L 348.0509 167.2169 L 346.3057 166.9067 L 346.3057 170.1644 L 345.2586 170.5264 L 345.1422 173.0084 L 345.4525 176.4213 L 344.7932 179.8859 L 345.1422 182.3162 L 344.6768 183.9192 L 344.9095 185.4188 L 345.2198 187.4872 L 345.5301 192.2445 L 344.9095 194.2612 L 345.4137 197.3121 L 344.7156 199.8459 L 345.3361 201.9143 L 344.3278 203.4139 L 344.2502 205.7408 L 346.5772 210.4981 L 346.5384 211.584 L 345.4137 213.911 L 344.9871 216.5482 L 344.289 217.7375 L 345.9179 219.1337 L 345.8791 222.3914 L 344.4829 224.8218 L 344.3278 225.9594 L 345.2586 228.9586 L 346.2281 230.9236 L 343.7461 231.8026 L 342.8153 231.6992 L 341.264 230.5616 L 340.2556 229.424 L 339.1697 229.1137 L 338.1226 226.6316 L 336.8428 226.0628 L 336.1059 226.8902 L 336.0671 228.8034 L 336.6101 230.0962 L 335.0976 231.1821 L 332.1113 230.9236 L 327.7289 227.9761 L 326.9533 226.4765 L 325.6347 225.0286 L 325.1693 222.1846 L 320.8256 221.2538 L 319.5846 222.0812 L 318.8477 221.6158 L 317.7618 219.2888 L 315.5512 216.0311 L 314.9695 215.7208 Z" fill="#000000" fill-opacity="1" stroke="#000000" stroke-width="0" paint-order="fill" stroke-opacity="1" stroke-dasharray="" stroke-linecap="butt" stroke-linejoin="miter" stroke-miterlimit="10" transform="matrix(1.100000023841858,0,0,1.100000023841858,-40.0000114440918,-26.649986267089844)" clip-path="none" style="filter: url(#f1)"/>
<path d="M 361.3921 283.5125 L 359.7632 284.7019 L 359.7632 284.7019 L 359.7632 284.7019 L 359.7632 284.7019 L 359.7632 284.7019 L 359.7632 284.7019 L 359.7632 284.7019 L 358.2507 282.1681 L 358.5609 280.5651 L 357.9792 279.0138 L 358.9876 276.9454 L 357.5526 274.7219 L 359.3366 273.7394 L 357.5526 271.2573 L 356.8157 269.3957 L 355.8074 268.2064 L 354.4888 267.6376 L 353.7519 265.3106 L 354.2561 263.8628 L 351.6577 259.4674 L 350.533 253.0554 L 349.7186 251.0904 L 349.9125 248.0395 L 348.4775 246.4882 L 348.3612 244.3164 L 347.3528 243.0237 L 346.3445 240.2313 L 343.2031 234.5432 L 341.1864 233.3539 L 341.264 230.5616 L 342.8153 231.6992 L 343.7461 231.8026 L 346.2281 230.9236 L 345.2586 228.9586 L 344.3278 225.9594 L 344.4829 224.8218 L 345.8791 222.3914 L 345.9179 219.1337 L 344.289 217.7375 L 344.9871 216.5482 L 345.4137 213.911 L 346.5384 211.584 L 346.5772 210.4981 L 344.2502 205.7408 L 344.3278 203.4139 L 345.3361 201.9143 L 344.7156 199.8459 L 345.4137 197.3121 L 344.9095 194.2612 L 345.5301 192.2445 L 345.2198 187.4872 L 344.9095 185.4188 L 347.1589 184.85 L 347.8182 186.6599 L 349.2144 188.3663 L 350.7269 192.2445 L 349.5246 195.1403 L 349.7186 197.7775 L 350.1839 198.7083 L 351.6577 198.6566 L 352.8211 199.9493 L 352.9763 201.4489 L 352.4333 205.2237 L 354.4112 206.5682 L 356.777 205.4306 L 358.5222 205.7408 L 361.8962 205.3789 L 363.5251 205.7925 L 366.2787 205.9477 L 368.3729 205.6891 L 370.2345 208.2746 L 370.312 209.4639 L 372.2512 210.705 L 371.9409 214.0144 L 371.0101 214.2212 L 367.8687 217.3238 L 364.9213 217.6341 L 364.5334 218.72 L 361.5084 219.2371 L 360.5389 221.047 L 360.7328 225.3906 L 362.5943 226.8902 L 364.6498 227.1487 L 366.395 228.4932 L 365.8133 230.4582 L 365.9296 233.871 L 367.0543 235.0603 L 367.4421 233.7159 L 368.4505 232.8368 L 370.6999 232.4231 L 372.0572 231.4407 L 373.88 230.9236 L 374.6169 230.2513 L 377.3704 230.4065 L 377.9522 232.8885 L 379.6586 236.2497 L 380.4342 239.042 L 379.9689 239.9211 L 380.2791 241.2655 L 381.8304 244.5233 L 380.8996 247.4707 L 380.8221 248.6083 L 381.4814 251.349 L 380.3955 253.1071 L 380.5894 253.831 L 379.4259 256.52 L 379.9301 259.2606 L 380.9772 259.8811 L 381.4426 262.0012 L 382.0243 262.9837 L 381.9855 265.0004 L 381.4038 266.6034 L 379.5035 266.2931 L 375.3925 266.6034 L 372.9492 267.3273 L 371.8245 268.7235 L 370.2345 268.9821 L 369.5752 271.0504 L 367.5973 272.4983 L 368.1014 274.6701 L 366.9767 276.6351 L 365.154 277.7727 L 364.7661 280.1514 L 366.6665 282.2715 L 365.6969 282.5301 L 365.1152 284.3916 L 363.5639 284.495 L 362.5943 283.5125 L 361.3921 283.5125 Z" fill="#000000" fill-opacity="1" stroke="#000000" stroke-width="0" paint-order="fill" stroke-opacity="1" stroke-dasharray="" stroke-linecap="butt" stroke-linejoin="miter" stroke-miterlimit="10" transform="matrix(1.100000023841858,0,0,1.100000023841858,-40.0000114440918,-26.649986267089844)" clip-path="none" style="filter: url(#f1)"/>
<path d="M 414.0586 250.3148 L 411.7317 250.1079 L 411.6153 248.8669 L 410.2967 248.3498 L 409.7926 251.1421 L 409.5599 254.2964 L 406.0694 256.6234 L 404.363 259.5191 L 405.0223 260.9153 L 404.4406 262.7252 L 403.122 264.2247 L 402.8505 262.2081 L 400.2133 260.5016 L 399.6316 259.4157 L 399.1274 257.7093 L 397.3046 257.1922 L 399.4376 254.8652 L 396.8392 251.349 L 395.0164 251.0904 L 394.9777 250.1596 L 393.5427 247.3156 L 395.0164 247.2639 L 395.637 246.3331 L 395.2104 244.7818 L 397.1495 242.61 L 395.7533 238.2147 L 396.1799 236.3014 L 397.3434 235.9394 L 397.227 234.3364 L 396.335 233.9744 L 395.3655 232.268 L 396.4902 230.4065 L 397.8088 230.3547 L 398.2742 228.6483 L 396.529 226.9936 L 395.9084 227.3556 L 391.2933 225.5457 L 390.4401 224.8218 L 390.3238 223.5807 L 391.0219 221.5641 L 393.853 221.047 L 392.961 219.2888 L 392.1465 214.5315 L 393.0385 213.9627 L 393.3488 212.67 L 395.8309 212.4114 L 398.3905 211.4806 L 400.9889 208.7917 L 401.7258 208.8951 L 403.3547 207.8609 L 404.906 208.2229 L 404.1303 205.4823 L 402.4239 202.7934 L 401.9973 200.8284 L 396.4126 198.5014 L 396.4514 197.157 L 394.9001 193.8992 L 393.1161 193.1236 L 393.5039 191.0552 L 391.6036 187.4355 L 390.8667 185.2637 L 392.2241 184.3846 L 396.4902 184.3846 L 398.1578 183.5573 L 400.0582 183.5573 L 401.687 180.9718 L 400.8726 180.1961 L 398.9723 179.5239 L 399.0498 178.5931 L 397.4597 178.0243 L 396.9168 178.5414 L 393.9693 178.9551 L 392.1853 178.8517 L 391.2158 178.1794 L 390.1686 176.0076 L 390.8667 174.4563 L 391.1382 172.4396 L 392.1078 170.4229 L 393.31 169.5439 L 393.6591 167.7857 L 395.2491 166.2862 L 396.1799 163.7007 L 397.4985 162.5113 L 398.7396 159.719 L 397.8088 157.754 L 397.7312 156.3578 L 396.878 155.9959 L 395.8697 156.9267 L 395.8309 155.4271 L 399.4764 153.7724 L 401.2216 153.4104 L 402.3463 156.0476 L 404.4406 157.4955 L 405.5653 156.9267 L 406.147 158.8916 L 405.6428 160.7532 L 403.4322 161.8391 L 403.3547 162.4079 L 407.8922 163.6489 L 408.2025 164.8383 L 409.8313 164.89 L 414.1362 163.5972 L 417.6266 161.7874 L 421.0007 160.9083 L 421.2722 159.9258 L 423.793 158.1677 L 424.8401 157.9091 L 426.3527 156.4613 L 430.8126 154.7031 L 432.3639 154.2895 L 435.4665 154.7548 L 436.7851 154.1343 L 439.0345 154.2895 L 440.7022 155.3236 L 443.4169 154.2895 L 446.5195 153.7206 L 446.3256 155.1168 L 443.4169 157.3403 L 442.331 157.754 L 442.331 161.684 L 444.6967 162.3045 L 445.1621 164.0626 L 446.3256 166.0793 L 444.7355 167.734 L 445.1234 168.8716 L 446.1705 168.9234 L 446.9849 170.5781 L 446.248 172.2328 L 447.4503 173.1119 L 446.3644 175.7491 L 449.8548 176.2145 L 450.8632 177.5589 L 453.4228 177.7658 L 453.8106 178.5414 L 455.8273 176.9901 L 457.6889 178.3346 L 459.5504 178.5414 L 459.5116 179.5756 L 460.52 181.5406 L 459.3953 181.9025 L 457.9216 181.4372 L 457.9216 183.1436 L 456.7969 185.0051 L 455.711 185.6774 L 456.7193 188.78 L 456.7581 191.3655 L 454.3924 193.7441 L 454.3924 194.9334 L 452.3369 199.1737 L 454.5863 200.3113 L 456.952 200.4147 L 458.5033 199.8459 L 462.5755 200.725 L 463.6226 201.7592 L 464.7861 201.1386 L 466.5313 202.2245 L 467.0742 201.3972 L 469.0521 201.604 L 469.5563 203.4656 L 468.6255 205.9994 L 469.2848 208.9985 L 470.2544 209.7742 L 472.0772 209.8259 L 473.3958 210.6016 L 472.1547 212.4631 L 472.2323 213.3422 L 474.3265 215.6174 L 477.2352 213.3939 L 478.4375 213.3422 L 479.9888 214.9969 L 482.3933 214.9452 L 485.1856 213.549 L 487.1247 210.9635 L 488.7924 209.8259 L 491.1969 208.9985 L 492.787 207.8609 L 493.8341 207.8609 L 494.0668 209.3088 L 495.0364 211.2221 L 494.4546 213.4456 L 491.5072 215.9794 L 487.086 218.5132 L 485.6898 218.1512 L 484.9529 221.6675 L 483.867 223.7359 L 481.8891 224.7184 L 481.3462 227.9244 L 484.2548 228.1312 L 481.8115 229.7342 L 478.5538 229.2171 L 476.6147 230.5099 L 474.9471 232.268 L 473.6672 235.6809 L 472.6201 240.9553 L 470.2156 239.404 L 469.2848 238.1112 L 467.0742 238.7317 L 465.6393 240.7484 L 463.1184 241.2655 L 458.2318 239.7142 L 459.2014 240.9036 L 459.628 242.7134 L 460.4812 243.7993 L 460.1322 244.7818 L 458.6584 245.9711 L 455.5946 246.8502 L 453.0738 245.5057 L 451.7939 245.6092 L 449.6609 247.3673 L 449.2731 250.4182 L 449.467 251.8144 L 448.7301 253.1071 L 446.8298 254.0896 L 445.2009 252.6934 L 443.9599 253.6759 L 441.6329 254.0896 L 439.3448 255.6409 L 438.414 254.9687 L 437.3281 255.3823 L 434.5358 255.3306 L 433.0232 255.8994 L 432.5191 254.6584 L 430.3472 253.3657 L 428.5245 252.6934 L 428.0979 254.5033 L 428.1366 256.4683 L 425.1504 258.0196 L 424.8014 256.52 L 422.8235 255.6926 L 422.1642 256.0029 L 419.7209 255.3306 L 418.5962 254.0379 L 419.1779 252.0729 L 417.6654 250.4182 L 416.2304 250.8319 L 414.5628 249.384 L 414.0586 250.3148 Z" fill="#000000" fill-opacity="1" stroke="#000000" stroke-width="0" paint-order="fill" stroke-opacity="1" stroke-dasharray="" stroke-linecap="butt" stroke-linejoin="miter" stroke-miterlimit="10" transform="matrix(1.100000023841858,0,0,1.100000023841858,-40.0000114440918,-26.649986267089844)" clip-path="none" style="filter: url(#f1)"/>
<path d="M 406.0694 256.6234 L 409.5599 254.2964 L 409.7926 251.1421 L 410.2967 248.3498 L 411.6153 248.8669 L 411.7317 250.1079 L 412.7012 250.5733 L 414.0586 250.3148 L 414.5628 249.384 L 416.2304 250.8319 L 417.6654 250.4182 L 419.1779 252.0729 L 418.5962 254.0379 L 419.7209 255.3306 L 422.1642 256.0029 L 422.8235 255.6926 L 424.8014 256.52 L 425.1504 258.0196 L 424.5299 258.3298 L 424.7238 259.7777 L 422.9786 261.9495 L 423.793 264.173 L 422.9786 264.6901 L 423.9481 266.6551 L 423.8706 268.4132 L 422.0478 270.1714 L 421.5436 271.8261 L 420.5353 272.7052 L 421.8539 274.1013 L 422.6683 279.5826 L 422.3581 280.7719 L 419.6433 281.1856 L 417.2776 282.5301 L 415.2997 282.4266 L 414.3689 281.2373 L 413.8647 279.5309 L 412.8564 278.1347 L 409.0557 277.9796 L 405.7204 271.1539 L 405.5265 269.1372 L 404.363 267.3273 L 403.6649 266.9654 L 403.122 264.2247 L 403.122 264.173 L 403.122 264.173 L 404.4406 262.7252 L 405.0223 260.9153 L 404.363 259.5191 L 404.7896 258.2781 L 406.0694 256.6234 Z" fill="#000000" fill-opacity="1" stroke="#000000" stroke-width="0" paint-order="fill" stroke-opacity="1" stroke-dasharray="" stroke-linecap="butt" stroke-linejoin="miter" stroke-miterlimit="10" transform="matrix(1.100000023841858,0,0,1.100000023841858,-40.0000114440918,-26.649986267089844)" clip-path="none" style="filter: url(#f1)"/>
<path d="M 403.122 264.2247 L 403.6649 266.9654 L 404.363 267.3273 L 405.5265 269.1372 L 405.7204 271.1539 L 409.0557 277.9796 L 412.8564 278.1347 L 413.8647 279.5309 L 414.3689 281.2373 L 415.8426 284.5467 L 416.0365 286.1497 L 417.6654 287.7528 L 418.3635 286.3049 L 419.9923 286.7703 L 419.5657 288.2699 L 421.0007 290.4934 L 421.1558 292.1998 L 421.7375 292.6135 L 422.4744 294.5268 L 421.7375 295.0956 L 420.768 297.6811 L 422.3193 299.6977 L 422.7459 301.1456 L 426.2751 304.5068 L 427.3222 305.1273 L 428.4469 307.4025 L 429.6104 308.1782 L 429.8431 309.7295 L 432.4415 312.1081 L 433.6825 313.556 L 433.4498 314.2282 L 434.4194 315.4693 L 436.3197 315.7795 L 437.0954 316.4 L 438.6855 319.1407 L 438.9182 320.8988 L 437.9098 321.7779 L 437.522 322.9672 L 439.4611 325.3459 L 439.8489 326.8972 L 441.2839 328.9139 L 441.2063 330.0515 L 441.8268 332.637 L 442.4086 333.2575 L 444.6967 330.9822 L 445.1621 329.4827 L 446.791 330.2066 L 447.1788 331.1891 L 446.7522 333.6195 L 445.899 334.7571 L 445.7051 336.2049 L 444.5804 337.1874 L 442.7188 336.5669 L 441.8656 336.8255 L 440.8573 338.4285 L 439.6162 338.2216 L 440.2368 339.9798 L 440.0041 343.2375 L 439.3448 345.5127 L 439.3448 348.5636 L 439.8489 351.9248 L 439.6938 354.2 L 439.1121 354.8722 L 437.8323 353.5278 L 436.1258 354.1483 L 436.0095 356.3718 L 433.6438 355.6479 L 431.9761 357.2509 L 431.5107 355.2859 L 430.2309 354.0449 L 428.4081 350.7871 L 426.3914 347.8397 L 424.8014 346.8572 L 424.9953 345.6162 L 424.0645 342.7204 L 424.0257 340.2383 L 424.5687 338.3768 L 423.7154 336.3601 L 427.6713 335.9464 L 429.0674 336.6186 L 430.4248 335.7396 L 430.4248 334.9122 L 429.3001 333.1024 L 427.71 331.8096 L 427.2059 329.6895 L 425.8485 329.6378 L 424.4911 328.2416 L 424.2196 327.1557 L 422.9398 327.5694 L 421.9702 326.6386 L 421.3497 326.1732 L 421.1558 326.3284 L 420.225 325.7078 L 418.0144 322.8121 L 417.9369 321.3125 L 416.7734 319.2958 L 416.2304 317.0206 L 416.5407 314.9005 L 417.5103 313.7111 L 416.9673 310.5568 L 417.3163 309.8846 L 416.308 307.9196 L 415.6875 305.8512 L 415.9977 304.6102 L 414.9506 303.5243 L 414.4464 301.9213 L 415.1445 300.37 L 414.4464 300.4734 L 413.0891 303.1106 L 412.2746 302.8521 L 411.1887 304.0931 L 409.9865 299.6977 L 410.5682 298.0947 L 409.0557 294.6819 L 410.2579 292.1998 L 410.6458 290.2348 L 409.2884 288.9938 L 408.7842 286.46 L 408.0473 287.0805 L 407.6983 286.098 L 406.4573 285.1673 L 405.7204 283.6677 L 406.147 281.8578 L 405.9919 280.2031 L 404.906 278.9104 L 402.3463 279.9446 L 400.8338 279.3757 L 399.9806 279.7894 L 398.1578 276.48 L 398.7783 275.4975 L 398.4681 273.5842 L 399.7091 272.55 L 399.011 271.4641 L 396.4514 268.9303 L 395.8309 267.5342 L 396.6453 266.8102 L 395.0552 263.8111 L 395.0552 262.4666 L 393.7754 259.9328 L 396.0248 259.7777 L 397.6924 260.2431 L 397.9639 260.9153 L 399.6316 259.4157 L 400.2133 260.5016 L 402.8505 262.2081 L 403.122 264.173 L 403.122 264.2247 Z" fill="#000000" fill-opacity="1" stroke="#000000" stroke-width="0" paint-order="fill" stroke-opacity="1" stroke-dasharray="" stroke-linecap="butt" stroke-linejoin="miter" stroke-miterlimit="10" transform="matrix(1.100000023841858,0,0,1.100000023841858,-40.0000114440918,-26.649986267089844)" clip-path="none" style="filter: url(#f1)"/>
<path d="M 410.1416 86.1875 L 411.3826 86.3426 L 411.6929 85.4118 L 407.1553 78.9481 L 406.3797 75.0699 L 406.5348 74.0874 L 409.0169 71.7087 L 410.4131 71.1399 L 413.7096 67.8305 L 415.9202 67.9856 L 416.5407 65.7104 L 415.1833 63.3834 L 416.0365 60.1774 L 417.0837 59.0398 L 418.3247 58.7812 L 418.3247 56.868 L 420.3802 53.3 L 421.6988 54.5927 L 422.8235 53.9722 L 423.4052 54.4893 L 424.1808 56.9197 L 425.3055 57.7987 L 426.5466 57.2299 L 427.3222 57.5402 L 429.2226 59.5569 L 429.145 60.7979 L 430.3085 61.1082 L 431.7046 62.5043 L 431.7434 65.4001 L 431.4332 66.3309 L 432.8293 68.0373 L 432.0925 68.5027 L 433.2171 69.7954 L 433.3335 71.9155 L 434.3418 73.7771 L 435.1175 76.3109 L 435.8156 76.6212 L 436.9015 75.8972 L 437.4832 72.9497 L 439.1121 73.8805 L 439.6938 73.5703 L 440.8185 75.0699 L 442.2147 74.6562 L 442.8352 75.4318 L 442.7576 79.7755 L 443.3394 81.637 L 442.6801 84.5845 L 443.0679 86.4977 L 443.9987 87.4802 L 443.4945 88.7213 L 443.9599 90.738 L 443.5333 91.7722 L 444.2314 93.8406 L 443.8823 95.1333 L 444.3477 97.15 L 443.6496 99.115 L 443.5721 102.0624 L 442.331 104.3377 L 442.0208 105.6304 L 443.3006 107.4403 L 442.0595 109.1984 L 441.6717 108.1125 L 440.0429 108.9916 L 440.7797 111.8356 L 441.4778 111.8873 L 443.0291 114.1626 L 441.3227 115.9724 L 439.306 115.0933 L 438.2976 116.0758 L 437.3281 118.4545 L 435.6604 121.2468 L 434.497 121.6088 L 433.605 120.8331 L 431.7434 120.2643 L 431.5883 122.0225 L 430.8902 122.9015 L 431.0453 125.3319 L 429.7267 127.09 L 426.5466 129.4687 L 425.1892 128.1759 L 423.4052 132.0542 L 422.7071 132.4162 L 422.6683 135.0017 L 423.0949 136.4495 L 424.0645 137.432 L 423.5603 138.1042 L 421.8539 138.0008 L 419.1779 139.9141 L 419.2167 143.2752 L 418.7513 147.1018 L 421.2334 146.8949 L 422.2417 149.0667 L 421.3109 150.0492 L 422.8235 150.618 L 422.5908 154.0826 L 418.5962 158.2194 L 421.2722 159.9258 L 421.0007 160.9083 L 417.6266 161.7874 L 414.1362 163.5972 L 409.8313 164.89 L 408.2025 164.8383 L 407.8922 163.6489 L 403.3547 162.4079 L 403.4322 161.8391 L 405.6428 160.7532 L 406.147 158.8916 L 405.5653 156.9267 L 404.4406 157.4955 L 402.3463 156.0476 L 401.2216 153.4104 L 399.8642 150.9283 L 399.9418 148.5496 L 400.9502 147.1018 L 396.2187 145.1368 L 393.2325 145.5505 L 392.3017 146.0159 L 390.285 143.7923 L 389.6645 141.8791 L 387.2987 141.1551 L 386.2904 140.1726 L 384.4288 134.2777 L 387.1048 133.2952 L 388.0744 132.3644 L 387.9968 133.9675 L 389.1215 133.9157 L 389.2379 131.7956 L 387.5702 129.0033 L 387.1824 123.7289 L 387.3375 121.7639 L 387.958 120.5746 L 388.85 121.4019 L 391.6812 118.7647 L 391.5648 117.6271 L 390.4789 116.2309 L 389.7808 113.2835 L 390.8667 110.7497 L 391.5648 110.0775 L 391.4485 107.5437 L 390.0523 104.7513 L 389.742 103.4069 L 388.6949 101.8556 L 388.85 100.7697 L 391.0606 100.0457 L 391.5648 99.3735 L 391.2158 97.5637 L 389.6645 95.8572 L 390.0135 94.8748 L 392.6507 93.3235 L 392.8058 91.979 L 394.0469 91.4619 L 394.6286 89.9623 L 393.5427 89.0832 L 395.637 88.8764 L 397.8088 89.3935 L 402.4239 88.9798 L 404.1691 88.4627 L 407.9698 88.4627 L 408.9781 87.8939 L 410.1416 86.1875 Z" fill="#000000" fill-opacity="1" stroke="#000000" stroke-width="0" paint-order="fill" stroke-opacity="1" stroke-dasharray="" stroke-linecap="butt" stroke-linejoin="miter" stroke-miterlimit="10" transform="matrix(1.100000023841858,0,0,1.100000023841858,-40.0000114440918,-26.649986267089844)" clip-path="none" style="filter: url(#f1)"/>
<path d="M 401.2216 153.4104 L 399.4764 153.7724 L 395.8309 155.4271 L 395.8697 156.9267 L 396.878 155.9959 L 397.7312 156.3578 L 397.8088 157.754 L 398.7396 159.719 L 397.4985 162.5113 L 396.1799 163.7007 L 395.2491 166.2862 L 393.6591 167.7857 L 392.9998 167.2169 L 390.9831 167.8892 L 389.5869 167.0101 L 389.6257 165.0968 L 388.7337 164.89 L 385.825 168.8716 L 385.0106 171.3537 L 386.2904 175.6974 L 385.9026 184.488 L 384.7391 185.1086 L 384.8554 186.9184 L 386.2516 189.5039 L 385.7087 193.1236 L 386.717 194.4681 L 386.0965 195.8642 L 386.4843 200.001 L 387.3375 203.1036 L 386.6782 204.3964 L 385.2821 205.2237 L 384.0022 205.2237 L 382.7224 208.74 L 381.3262 210.4981 L 378.9217 210.4464 L 376.9438 207.8092 L 376.1294 207.7058 L 373.1044 208.4814 L 372.2512 210.705 L 370.312 209.4639 L 370.2345 208.2746 L 368.3729 205.6891 L 366.2787 205.9477 L 363.5251 205.7925 L 361.8962 205.3789 L 358.5222 205.7408 L 356.777 205.4306 L 354.4112 206.5682 L 352.4333 205.2237 L 352.9763 201.4489 L 352.8211 199.9493 L 351.6577 198.6566 L 350.1839 198.7083 L 349.7186 197.7775 L 349.5246 195.1403 L 350.7269 192.2445 L 349.2144 188.3663 L 347.8182 186.6599 L 347.1589 184.85 L 344.9095 185.4188 L 344.6768 183.9192 L 345.1422 182.3162 L 344.7932 179.8859 L 345.4525 176.4213 L 345.1422 173.0084 L 345.2586 170.5264 L 346.3057 170.1644 L 346.3057 166.9067 L 348.0509 167.2169 L 348.3612 166.7515 L 349.0593 162.3045 L 348.3612 158.6331 L 348.5163 157.1335 L 349.7186 155.4271 L 350.7657 151.704 L 352.0455 148.1877 L 352.8987 147.1535 L 353.6744 144.8265 L 354.7215 143.0167 L 356.0789 141.8791 L 357.0097 139.4487 L 358.5609 138.5179 L 358.7936 137.0183 L 359.9959 135.3119 L 360.4225 133.3986 L 361.1982 132.2093 L 360.8879 129.6755 L 358.5997 128.7447 L 358.0956 127.1417 L 359.4142 123.7289 L 361.1982 121.919 L 362.6719 121.6088 L 364.9601 119.2818 L 366.8604 116.5929 L 367.83 116.1792 L 367.7912 111.939 L 369.1486 111.2668 L 370.9713 109.095 L 369.7303 107.8539 L 369.8854 105.7855 L 368.9546 104.5445 L 369.42 101.2351 L 368.9934 99.3218 L 370.2345 97.9773 L 370.6999 96.426 L 372.4451 95.0299 L 373.5698 95.4953 L 376.2845 94.5645 L 378.34 91.9273 L 380.3955 91.7204 L 380.8609 90.6862 L 382.8388 89.8589 L 384.2737 87.8939 L 386.5231 87.17 L 389.1215 83.5503 L 391.7587 82.1024 L 397.1107 81.275 L 399.2049 81.4302 L 400.7562 80.0857 L 401.7258 80.4994 L 402.7729 79.9306 L 404.2079 80.396 L 406.1858 82.7229 L 406.2634 84.3259 L 410.1416 86.1875 L 408.9781 87.8939 L 407.9698 88.4627 L 404.1691 88.4627 L 402.4239 88.9798 L 397.8088 89.3935 L 395.637 88.8764 L 393.5427 89.0832 L 394.6286 89.9623 L 394.0469 91.4619 L 392.8058 91.979 L 392.6507 93.3235 L 390.0135 94.8748 L 389.6645 95.8572 L 391.2158 97.5637 L 391.5648 99.3735 L 391.0606 100.0457 L 388.85 100.7697 L 388.6949 101.8556 L 389.742 103.4069 L 390.0523 104.7513 L 391.4485 107.5437 L 391.5648 110.0775 L 390.8667 110.7497 L 389.7808 113.2835 L 390.4789 116.2309 L 391.5648 117.6271 L 391.6812 118.7647 L 388.85 121.4019 L 387.958 120.5746 L 387.3375 121.7639 L 387.1824 123.7289 L 387.5702 129.0033 L 389.2379 131.7956 L 389.1215 133.9157 L 387.9968 133.9675 L 388.0744 132.3644 L 387.1048 133.2952 L 384.4288 134.2777 L 386.2904 140.1726 L 387.2987 141.1551 L 389.6645 141.8791 L 390.285 143.7923 L 392.3017 146.0159 L 393.2325 145.5505 L 396.2187 145.1368 L 400.9502 147.1018 L 399.9418 148.5496 L 399.8642 150.9283 L 401.2216 153.4104 Z" fill="#000000" fill-opacity="1" stroke="#000000" stroke-width="0" paint-order="fill" stroke-opacity="1" stroke-dasharray="" stroke-linecap="butt" stroke-linejoin="miter" stroke-miterlimit="10" transform="matrix(1.100000023841858,0,0,1.100000023841858,-40.0000114440918,-26.649986267089844)" clip-path="none" style="filter: url(#f1)"/>
<path d="M 393.7754 259.9328 L 395.0552 262.4666 L 395.0552 263.8111 L 396.6453 266.8102 L 395.8309 267.5342 L 396.4514 268.9303 L 399.011 271.4641 L 399.7091 272.55 L 398.4681 273.5842 L 398.7783 275.4975 L 398.1578 276.48 L 399.9806 279.7894 L 400.8338 279.3757 L 402.3463 279.9446 L 404.906 278.9104 L 405.9919 280.2031 L 406.147 281.8578 L 405.7204 283.6677 L 406.4573 285.1673 L 407.6983 286.098 L 408.0473 287.0805 L 408.7842 286.46 L 409.2884 288.9938 L 410.6458 290.2348 L 410.2579 292.1998 L 409.0557 294.6819 L 410.5682 298.0947 L 409.9865 299.6977 L 411.1887 304.0931 L 410.4131 304.8687 L 408.5903 305.4375 L 408.3964 304.4551 L 406.1858 302.6452 L 403.7813 302.6969 L 403.5874 306.0064 L 402.9668 307.5577 L 402.23 307.4025 L 404.1303 309.2124 L 404.1303 309.9363 L 402.7729 311.591 L 402.9281 312.5735 L 404.0528 314.9522 L 403.3547 317.8996 L 402.4239 317.8996 L 402.23 318.9338 L 399.7867 316.9171 L 396.7617 316.5035 L 392.8834 316.5552 L 392.9222 314.6419 L 391.526 311.591 L 390.634 307.8162 L 385.7087 298.8704 L 384.3125 300.2148 L 382.4509 301.4042 L 381.2487 303.1623 L 379.6198 304.4033 L 378.9993 305.541 L 376.9438 302.8003 L 374.1127 301.5076 L 372.8717 299.3875 L 372.7553 297.9396 L 373.4146 297.2157 L 373.6473 295.1473 L 372.7165 294.1648 L 372.8329 292.4066 L 371.4755 287.8562 L 369.4588 285.7878 L 366.6665 282.2715 L 364.7661 280.1514 L 365.154 277.7727 L 366.9767 276.6351 L 368.1014 274.6701 L 367.5973 272.4983 L 369.5752 271.0504 L 370.2345 268.9821 L 371.8245 268.7235 L 372.9492 267.3273 L 375.3925 266.6034 L 379.5035 266.2931 L 381.4038 266.6034 L 381.9855 265.0004 L 382.0243 262.9837 L 381.4426 262.0012 L 380.9772 259.8811 L 382.7612 260.3465 L 384.4676 259.6226 L 387.8417 261.0704 L 389.0439 259.5708 L 393.7754 259.9328 Z" fill="#000000" fill-opacity="1" stroke="#000000" stroke-width="0" paint-order="fill" stroke-opacity="1" stroke-dasharray="" stroke-linecap="butt" stroke-linejoin="miter" stroke-miterlimit="10" transform="matrix(1.100000023841858,0,0,1.100000023841858,-40.0000114440918,-26.649986267089844)" clip-path="none" style="filter: url(#f1)"/>
<path d="M 393.7754 259.9328 L 389.0439 259.5708 L 387.8417 261.0704 L 384.4676 259.6226 L 382.7612 260.3465 L 380.9772 259.8811 L 379.9301 259.2606 L 379.4259 256.52 L 380.5894 253.831 L 380.3955 253.1071 L 381.4814 251.349 L 380.8221 248.6083 L 380.8996 247.4707 L 381.8304 244.5233 L 380.2791 241.2655 L 379.9689 239.9211 L 380.4342 239.042 L 379.6586 236.2497 L 377.9522 232.8885 L 377.3704 230.4065 L 374.6169 230.2513 L 373.88 230.9236 L 372.0572 231.4407 L 370.6999 232.4231 L 368.4505 232.8368 L 367.4421 233.7159 L 367.0543 235.0603 L 365.9296 233.871 L 365.8133 230.4582 L 366.395 228.4932 L 364.6498 227.1487 L 362.5943 226.8902 L 360.7328 225.3906 L 360.5389 221.047 L 361.5084 219.2371 L 364.5334 218.72 L 364.9213 217.6341 L 367.8687 217.3238 L 371.0101 214.2212 L 371.9409 214.0144 L 372.2512 210.705 L 373.1044 208.4814 L 376.1294 207.7058 L 376.9438 207.8092 L 378.9217 210.4464 L 381.3262 210.4981 L 382.7224 208.74 L 384.0022 205.2237 L 385.2821 205.2237 L 386.6782 204.3964 L 387.3375 203.1036 L 386.4843 200.001 L 386.0965 195.8642 L 386.717 194.4681 L 385.7087 193.1236 L 386.2516 189.5039 L 384.8554 186.9184 L 384.7391 185.1086 L 385.9026 184.488 L 386.2904 175.6974 L 385.0106 171.3537 L 385.825 168.8716 L 388.7337 164.89 L 389.6257 165.0968 L 389.5869 167.0101 L 390.9831 167.8892 L 392.9998 167.2169 L 393.6591 167.7857 L 393.31 169.5439 L 392.1078 170.4229 L 391.1382 172.4396 L 390.8667 174.4563 L 390.1686 176.0076 L 391.2158 178.1794 L 392.1853 178.8517 L 393.9693 178.9551 L 396.9168 178.5414 L 397.4597 178.0243 L 399.0498 178.5931 L 398.9723 179.5239 L 400.8726 180.1961 L 401.687 180.9718 L 400.0582 183.5573 L 398.1578 183.5573 L 396.4902 184.3846 L 392.2241 184.3846 L 390.8667 185.2637 L 391.6036 187.4355 L 393.5039 191.0552 L 393.1161 193.1236 L 394.9001 193.8992 L 396.4514 197.157 L 396.4126 198.5014 L 401.9973 200.8284 L 402.4239 202.7934 L 404.1303 205.4823 L 404.906 208.2229 L 403.3547 207.8609 L 401.7258 208.8951 L 400.9889 208.7917 L 398.3905 211.4806 L 395.8309 212.4114 L 393.3488 212.67 L 393.0385 213.9627 L 392.1465 214.5315 L 392.961 219.2888 L 393.853 221.047 L 391.0219 221.5641 L 390.3238 223.5807 L 390.4401 224.8218 L 391.2933 225.5457 L 395.9084 227.3556 L 396.529 226.9936 L 398.2742 228.6483 L 397.8088 230.3547 L 396.4902 230.4065 L 395.3655 232.268 L 396.335 233.9744 L 397.227 234.3364 L 397.3434 235.9394 L 396.1799 236.3014 L 395.7533 238.2147 L 397.1495 242.61 L 395.2104 244.7818 L 395.637 246.3331 L 395.0164 247.2639 L 393.5427 247.3156 L 394.9777 250.1596 L 395.0164 251.0904 L 396.8392 251.349 L 399.4376 254.8652 L 397.3046 257.1922 L 399.1274 257.7093 L 399.6316 259.4157 L 397.9639 260.9153 L 397.6924 260.2431 L 396.0248 259.7777 L 393.7754 259.9328 Z" fill="#000000" fill-opacity="1" stroke="#000000" stroke-width="0" paint-order="fill" stroke-opacity="1" stroke-dasharray="" stroke-linecap="butt" stroke-linejoin="miter" stroke-miterlimit="10" transform="matrix(1.100000023841858,0,0,1.100000023841858,-40.0000114440918,-26.649986267089844)" clip-path="none" style="filter: url(#f1)"/>
<path d="M 402.23 318.9338 L 402.6178 319.968 L 401.6095 322.4501 L 399.9806 323.9497 L 398.9335 326.0698 L 397.5373 327.3626 L 393.6203 328.2416 L 391.9138 327.3108 L 389.9747 325.4493 L 389.1991 322.657 L 389.8584 320.4851 L 387.958 321.4676 L 389.4318 324.26 L 389.5093 326.4318 L 391.4485 329.069 L 390.3238 330.7754 L 386.6782 331.7062 L 384.5064 330.3617 L 382.0243 329.6895 L 380.5118 328.0348 L 381.7528 326.3801 L 381.2099 324.1048 L 382.2182 322.0364 L 381.4814 320.2783 L 382.2182 318.3133 L 381.2875 316.7103 L 381.0935 315.4176 L 379.9301 313.4526 L 378.0685 311.3842 L 377.7583 309.2124 L 378.9993 305.541 L 379.6198 304.4033 L 381.2487 303.1623 L 382.4509 301.4042 L 384.3125 300.2148 L 385.7087 298.8704 L 390.634 307.8162 L 391.526 311.591 L 392.9222 314.6419 L 392.8834 316.5552 L 396.7617 316.5035 L 399.7867 316.9171 L 402.23 318.9338 Z" fill="#000000" fill-opacity="1" stroke="#000000" stroke-width="0" paint-order="fill" stroke-opacity="1" stroke-dasharray="" stroke-linecap="butt" stroke-linejoin="miter" stroke-miterlimit="10" transform="matrix(1.100000023841858,0,0,1.100000023841858,-40.0000114440918,-26.649986267089844)" clip-path="none" style="filter: url(#f1)"/>
<path d="M 432.6742 474.7358 L 433.5662 475.77 L 432.4415 477.1145 L 431.0065 477.735 L 429.9594 479.7 L 429.8431 477.1145 L 432.6742 474.7358 Z M 431.3556 474.5807 L 430.8514 472.8226 L 431.3944 471.7884 L 432.3639 472.3055 L 431.3556 474.5807 Z M 424.9953 465.428 L 425.7709 466.1003 L 425.0341 467.031 L 424.5687 466.6174 L 424.9953 465.428 Z M 439.3448 457.2579 L 439.1121 458.0335 L 438.1813 457.413 L 438.0262 455.9134 L 439.3448 457.2579 Z M 425.0341 456.6374 L 424.7238 456.4822 L 424.7626 455.3963 L 426.0036 455.2412 L 425.0341 456.6374 Z M 432.0149 455.0861 L 432.2088 456.3788 L 433.0232 457.1027 L 433.6438 459.4814 L 432.3252 460.3088 L 432.4027 457.2579 L 430.7351 455.2929 L 428.7959 455.9134 L 430.1921 453.9484 L 431.3168 454.0519 L 432.0149 455.0861 Z M 439.1121 453.6899 L 438.3752 454.6207 L 437.6771 454.0001 L 438.8794 451.5181 L 439.1121 453.6899 Z M 433.2171 447.7432 L 432.5966 448.5189 L 432.2476 447.1744 L 433.3335 447.1227 L 433.2171 447.7432 Z M 433.4111 441.8483 L 432.9069 442.7791 L 432.2864 442.0034 L 431.2392 443.2445 L 431.6271 439.9868 L 432.4415 439.2111 L 432.4027 437.7632 L 433.605 435.2294 L 434.3031 436.7807 L 433.8377 437.1427 L 433.4111 441.8483 Z M 439.1896 435.2294 L 439.4611 436.1085 L 438.9957 441.3312 L 436.7076 439.6248 L 435.8156 438.332 L 436.1258 437.2978 L 435.5441 436.3154 L 435.8544 435.3329 L 439.1896 435.2294 Z M 428.2918 436.3154 L 429.1062 439.0043 L 428.4081 438.5389 L 427.2834 436.0568 L 427.1283 434.1952 L 428.2918 436.3154 Z M 438.6467 430.4721 L 439.5387 430.6273 L 441.7105 432.0234 L 439.8102 432.1786 L 437.7159 433.161 L 437.5608 430.8858 L 436.9015 430.2653 L 436.7076 428.352 L 437.6383 428.8691 L 438.6467 430.4721 Z M 429.3389 426.0768 L 430.1921 426.2836 L 430.1921 427.4212 L 428.9899 426.9559 L 427.9427 425.5597 L 428.7959 424.0084 L 429.9206 424.6806 L 429.3389 426.0768 Z M 429.3001 422.302 L 428.6408 422.302 L 427.3998 423.543 L 425.9648 423.543 L 425.8485 422.2503 L 427.3222 421.4746 L 428.0979 422.4571 L 428.8735 420.9058 L 429.3001 422.302 Z M 438.414 421.2678 L 437.6771 420.9575 L 438.2589 418.9408 L 438.6079 419.7165 L 438.414 421.2678 Z M 433.4498 419.1477 L 432.2864 418.8374 L 432.8681 417.5447 L 433.605 418.6306 L 433.4498 419.1477 Z M 436.0483 417.5964 L 436.5912 418.5789 L 437.173 416.8724 L 437.5996 417.9583 L 437.4832 419.7165 L 435.8156 422.4054 L 434.9236 423.181 L 433.8764 422.9225 L 434.5358 420.9058 L 434.5745 418.9408 L 433.8764 416.9758 L 434.1867 414.9592 L 436.1646 416.0968 L 436.0483 417.5964 Z M 433.7601 405.9099 L 433.8764 409.7882 L 432.6354 405.1343 L 432.5966 403.221 L 433.1784 403.3244 L 433.7601 405.9099 Z M 422.9398 364.9557 L 422.9398 364.9557 L 424.6074 362.7321 L 425.3055 360.4569 L 427.71 359.9915 L 430.037 362.4219 L 431.6271 362.4219 L 432.2864 364.0766 L 432.7518 366.6621 L 433.9152 368.6271 L 436.5524 371.2126 L 437.871 373.281 L 439.3836 376.487 L 440.3531 377.728 L 442.0595 378.9691 L 442.874 378.9173 L 443.8823 380.5204 L 448.0708 383.5195 L 448.2647 384.4503 L 449.6609 386.5187 L 451.3285 388.1734 L 451.6776 390.4487 L 452.6471 391.5863 L 452.6471 394.5854 L 453.4228 398.1017 L 453.1125 400.9975 L 453.4616 402.6522 L 451.5225 403.9449 L 451.3285 406.9958 L 452.6084 407.9783 L 453.0738 411.4429 L 453.927 412.5805 L 454.0045 413.925 L 455.4007 415.4763 L 457.9991 417.1827 L 458.2706 418.1135 L 457.844 420.0267 L 458.5809 421.8883 L 458.8523 423.905 L 459.3953 424.8358 L 459.5892 427.7832 L 461.3732 427.6281 L 460.7527 430.0585 L 461.9937 431.1961 L 461.5671 433.0059 L 463.2348 434.8158 L 462.7306 436.8842 L 461.0629 439.056 L 459.0463 439.8316 L 458.7748 442.1069 L 457.6501 443.503 L 457.3786 444.8475 L 456.2927 446.0885 L 454.7026 448.9326 L 454.0045 451.001 L 450.9795 453.483 L 450.5141 454.6724 L 449.3119 454.4138 L 448.8853 455.0861 L 448.7301 457.413 L 447.1788 457.6716 L 445.5112 458.8092 L 444.115 460.5156 L 443.6884 462.0152 L 444.658 464.3421 L 443.6496 468.2204 L 442.5249 471.1161 L 441.3615 472.6674 L 440.1592 475.2529 L 439.1121 476.494 L 438.6079 475.5632 L 438.4528 472.8743 L 437.9486 471.5298 L 438.8018 467.9101 L 438.0262 465.8934 L 438.065 463.5148 L 437.3669 461.8601 L 437.2505 459.8951 L 438.6467 459.3263 L 439.5775 459.6365 L 441.09 456.8442 L 440.0041 456.1203 L 441.4778 455.2929 L 442.9128 455.1378 L 443.0679 453.8967 L 442.4862 453.2245 L 443.1067 452.3971 L 442.7576 451.2078 L 441.7105 450.4322 L 443.1842 449.8634 L 443.9599 447.2779 L 442.6025 444.5889 L 442.9903 443.2962 L 444.3089 443.0894 L 443.8435 441.5381 L 443.0291 441.3312 L 443.8048 437.9184 L 445.2397 438.0218 L 445.3561 437.2978 L 446.9073 437.6081 L 446.5583 436.9359 L 444.1538 436.1085 L 442.9128 436.6256 L 442.2922 437.8667 L 440.5082 436.2636 L 442.5249 433.1093 L 439.306 433.4196 L 439.9653 432.7991 L 441.439 432.6957 L 443.1067 431.4546 L 442.9515 429.2311 L 441.1675 428.5589 L 441.1288 427.3178 L 442.874 425.9734 L 442.5637 425.146 L 440.3531 426.2319 L 439.1121 425.146 L 439.3836 424.2669 L 442.1371 423.4913 L 442.6413 422.3537 L 440.547 420.9058 L 440.8185 419.5613 L 442.874 418.9408 L 440.9736 417.9583 L 442.4474 414.0284 L 441.09 413.4079 L 441.5942 412.4771 L 441.2063 410.6155 L 440.2368 409.6847 L 440.7797 408.9091 L 440.1592 407.4612 L 440.0041 403.583 L 437.8323 401.4112 L 436.7851 396.9641 L 435.1563 394.9991 L 433.8764 392.5688 L 433.954 391.8965 L 432.6742 391.5863 L 432.9069 389.6213 L 432.4415 386.9324 L 432.4415 385.0191 L 431.4332 383.5712 L 431.7046 385.1742 L 431.278 386.7773 L 431.7046 388.0183 L 431.2392 391.1209 L 431.5495 392.9824 L 431.0453 395.5679 L 430.1533 394.5337 L 430.8126 392.1034 L 429.5716 391.8448 L 429.2613 389.7247 L 429.7267 389.8281 L 429.7655 387.2944 L 429.145 386.7773 L 428.6796 384.8123 L 429.7267 382.0199 L 427.2059 377.4695 L 426.8568 374.884 L 424.8789 370.0749 L 425.3055 368.8339 L 426.1587 368.6271 L 427.9815 370.2818 L 426.3139 366.8172 L 425.8873 367.8514 L 423.9481 368.2134 L 422.9398 364.9557 Z" fill="rgba(246,218,204,1)" fill-opacity="1" stroke="#000000" stroke-width="0.4545454446934474" paint-order="fill" stroke-opacity="1" stroke-dasharray="" stroke-linecap="butt" stroke-linejoin="miter" stroke-miterlimit="10" transform="matrix(1.100000023841858,0,0,1.100000023841858,-40.0000114440918,-26.649986267089844)" clip-path="none"/>
<path d="M 437.4832 423.0259 L 436.8627 422.6639 L 437.7547 421.7332 L 438.0262 422.5605 L 437.4832 423.0259 Z" fill="#f4f6f7" fill-opacity="1" stroke="#000000" stroke-width="0.4545454446934474" paint-order="fill" stroke-opacity="1" stroke-dasharray="" stroke-linecap="butt" stroke-linejoin="miter" stroke-miterlimit="10" transform="matrix(1.100000023841858,0,0,1.100000023841858,-40.0000114440918,-26.649986267089844)" clip-path="none"/>
<path d="M 418.2471 334.2917 L 417.0449 334.6019 L 416.9285 333.6195 L 415.8038 332.4818 L 416.3856 331.0857 L 415.6875 329.1207 L 417.2 327.7245 L 419.0228 328.345 L 418.2471 334.2917 Z M 422.9398 364.9557 L 423.4052 363.1458 L 422.4744 361.8014 L 423.2501 361.4911 L 423.2501 358.2334 L 421.8539 356.1133 L 421.5049 354.4586 L 422.9786 352.9073 L 422.2805 350.994 L 422.552 350.1149 L 421.8927 348.4085 L 421.2722 341.9448 L 418.441 339.1524 L 418.2083 337.5494 L 419.2555 336.5669 L 419.9536 332.9472 L 419.4494 331.3442 L 419.4882 329.4309 L 420.0311 327.8279 L 421.9702 326.6386 L 422.9398 327.5694 L 424.2196 327.1557 L 424.4911 328.2416 L 425.8485 329.6378 L 427.2059 329.6895 L 427.71 331.8096 L 429.3001 333.1024 L 430.4248 334.9122 L 430.4248 335.7396 L 429.0674 336.6186 L 427.6713 335.9464 L 423.7154 336.3601 L 424.5687 338.3768 L 424.0257 340.2383 L 424.0645 342.7204 L 424.9953 345.6162 L 424.8014 346.8572 L 426.3914 347.8397 L 428.4081 350.7871 L 430.2309 354.0449 L 431.5107 355.2859 L 431.9761 357.2509 L 431.0453 359.371 L 431.7822 361.0774 L 431.6271 362.4219 L 430.037 362.4219 L 427.71 359.9915 L 425.3055 360.4569 L 424.6074 362.7321 L 422.9398 364.9557 Z M 421.1558 326.3284 L 419.1779 327.3108 L 417.7817 327.104 L 414.6404 327.5694 L 413.9035 328.345 L 413.0891 323.8463 L 412.6625 324.4668 L 411.4602 323.4326 L 410.9172 321.7779 L 411.2663 320.692 L 410.7233 318.7787 L 409.9477 318.3133 L 410.2967 316.5552 L 409.4047 314.5385 L 410.8397 313.6594 L 409.4435 313.556 L 408.823 314.6936 L 408.2025 313.4526 L 408.3964 312.1598 L 407.5432 310.7637 L 404.014 307.9196 L 403.5874 306.0064 L 403.7813 302.6969 L 406.1858 302.6452 L 408.3964 304.4551 L 408.5903 305.4375 L 410.4131 304.8687 L 411.1887 304.0931 L 412.2746 302.8521 L 413.0891 303.1106 L 414.4464 300.4734 L 415.1445 300.37 L 414.4464 301.9213 L 414.9506 303.5243 L 415.9977 304.6102 L 415.6875 305.8512 L 416.308 307.9196 L 417.3163 309.8846 L 416.9673 310.5568 L 417.5103 313.7111 L 416.5407 314.9005 L 416.2304 317.0206 L 416.7734 319.2958 L 417.9369 321.3125 L 418.0144 322.8121 L 420.225 325.7078 L 421.1558 326.3284 Z" fill="rgba(246,206,222,1)" fill-opacity="1" stroke="#000000" stroke-width="0.4545454446934474" paint-order="fill" stroke-opacity="1" stroke-dasharray="" stroke-linecap="butt" stroke-linejoin="miter" stroke-miterlimit="10" transform="matrix(1.100000023841858,0,0,1.100000023841858,-40.0000114440918,-26.649986267089844)" clip-path="none"/>
<path d="M 335.2915 272.3432 L 336.5325 272.3432 L 336.8428 274.9804 L 335.7569 276.7903 L 334.3219 276.6351 L 331.2581 272.8603 L 330.9866 272.0846 L 333.0033 271.9812 L 333.9729 271.3607 L 335.2915 272.3432 Z M 338.2777 258.2781 L 339.9066 258.5366 L 341.8069 259.9845 L 341.6906 261.2256 L 339.4412 263.0354 L 338.1226 263.0871 L 334.8261 258.0713 L 335.8732 256.5717 L 336.7652 256.7268 L 338.2777 258.2781 Z M 332.3828 251.8144 L 330.7539 250.625 L 330.0559 247.3156 L 330.8703 247.7293 L 332.1889 249.2806 L 332.3828 251.8144 Z M 321.8728 249.9528 L 321.5625 248.5049 L 319.5846 244.4198 L 320.399 244.3164 L 321.7176 248.143 L 321.8728 249.9528 Z M 341.264 230.5616 L 341.1864 233.3539 L 343.2031 234.5432 L 346.3445 240.2313 L 347.3528 243.0237 L 348.3612 244.3164 L 348.4775 246.4882 L 349.9125 248.0395 L 349.7186 251.0904 L 350.533 253.0554 L 351.6577 259.4674 L 354.2561 263.8628 L 353.7519 265.3106 L 354.4888 267.6376 L 355.8074 268.2064 L 356.8157 269.3957 L 357.5526 271.2573 L 359.3366 273.7394 L 357.5526 274.7219 L 358.9876 276.9454 L 357.9792 279.0138 L 358.5609 280.5651 L 358.2507 282.1681 L 359.4529 284.3399 L 359.7632 284.7019 L 359.7632 284.7019 L 359.7632 284.7019 L 359.7632 284.7019 L 359.7632 284.7019 L 360.6552 286.5634 L 360.8879 288.787 L 360.4613 290.5451 L 360.4225 292.9237 L 360.0735 294.5268 L 360.9655 296.2849 L 360.4613 299.0772 L 358.8324 301.4559 L 358.5222 305.0756 L 357.2811 307.2991 L 353.5192 305.0239 L 353.4029 302.2832 L 354.5664 303.1623 L 353.4029 300.008 L 353.1314 298.5084 L 352.2394 297.5776 L 351.9292 294.9404 L 351.1923 293.2857 L 352.1618 292.0964 L 351.9679 290.5451 L 350.8045 287.0805 L 349.0593 286.9254 L 348.7878 285.8395 L 350.7269 285.4775 L 349.3307 284.0296 L 348.9429 282.8403 L 347.1589 280.2031 L 347.508 280.0997 L 347.2753 277.9279 L 345.181 275.8078 L 346.5772 275.6009 L 345.3361 273.7394 L 344.6381 273.8428 L 342.8928 272.8086 L 343.2807 271.0504 L 343.048 269.6026 L 343.5134 268.103 L 342.8928 267.5859 L 343.4358 264.4833 L 343.3582 262.6217 L 342.8928 263.0354 L 343.0092 264.897 L 341.6906 266.1897 L 340.9537 264.8453 L 340.3332 265.4658 L 341.3028 266.6551 L 341.1864 268.7752 L 341.7682 269.9645 L 341.5742 271.309 L 340.5659 272.7569 L 338.1226 270.7402 L 335.2915 268.9303 L 334.5934 266.2414 L 333.5851 265.2589 L 331.6072 262.0529 L 331.3745 260.2431 L 332.887 259.4157 L 334.0892 260.0879 L 334.2831 261.691 L 336.2998 262.6734 L 336.4162 263.2423 L 338.7819 264.0179 L 340.8762 262.6734 L 342.156 260.7085 L 342.1172 258.9503 L 340.8374 258.9503 L 341.1476 258.2781 L 339.9842 257.9678 L 336.8428 254.917 L 338.937 253.0037 L 338.5104 252.3832 L 337.5021 253.9862 L 334.8649 251.9178 L 334.128 252.9003 L 334.1668 251.4007 L 335.4854 249.4357 L 337.153 249.1772 L 337.347 248.4532 L 334.4771 248.4532 L 333.779 249.1254 L 332.4992 247.7293 L 332.6931 246.3848 L 330.9866 247.419 L 330.2886 246.7985 L 329.5517 244.213 L 329.4353 245.5575 L 328.8148 243.851 L 327.3411 245.0921 L 324.3161 244.3681 L 325.2081 247.1088 L 326.4103 249.6425 L 325.9837 249.8494 L 324.6263 246.2297 L 323.8119 246.178 L 323.6955 247.6259 L 324.2385 249.9011 L 322.726 247.1605 L 322.5321 246.1263 L 321.0195 243.9545 L 320.942 242.972 L 323.618 242.61 L 324.2385 241.1104 L 321.9891 242.5583 L 321.4074 242.4032 L 321.7176 240.4899 L 322.6484 238.4215 L 322.5321 236.1463 L 323.7343 233.871 L 323.5016 233.3539 L 322.3382 235.6292 L 322.2994 237.5424 L 321.6013 239.404 L 319.4295 242.7651 L 318.615 243.0237 L 316.7923 241.1621 L 317.4128 239.8694 L 319.4683 238.3181 L 318.3823 236.9219 L 318.266 234.8535 L 316.5983 234.3881 L 316.3269 232.8885 L 314.8531 230.1479 L 314.3102 229.6825 L 315.6676 232.268 L 316.2493 235.5774 L 315.939 239.8177 L 314.4265 236.0945 L 312.0996 233.509 L 311.7505 232.0612 L 310.3932 230.1996 L 308.8806 229.424 L 307.4845 224.3564 L 307.0191 223.4256 L 306.864 221.3055 L 304.9636 218.3063 L 305.2739 215.1003 L 306.5149 212.8768 L 307.5233 212.8768 L 308.3765 211.8943 L 309.3073 212.5665 L 309.5399 213.7559 L 310.3932 214.2212 L 312.565 214.3764 L 313.1855 216.755 L 313.8448 217.0136 L 314.9695 215.7208 L 315.5512 216.0311 L 317.7618 219.2888 L 318.8477 221.6158 L 319.5846 222.0812 L 320.8256 221.2538 L 325.1693 222.1846 L 325.6347 225.0286 L 326.9533 226.4765 L 327.7289 227.9761 L 332.1113 230.9236 L 335.0976 231.1821 L 336.6101 230.0962 L 336.0671 228.8034 L 336.1059 226.8902 L 336.8428 226.0628 L 338.1226 226.6316 L 339.1697 229.1137 L 340.2556 229.424 L 341.264 230.5616 Z M 359.7632 284.7019 L 359.7632 284.7019 L 359.7632 284.7019 L 359.7632 284.7019 Z M 359.7632 284.7019 L 359.7632 284.7019 L 359.7632 284.7019 L 359.7632 284.7019 Z" fill="rgba(246,206,222,1)" fill-opacity="1" stroke="#000000" stroke-width="0.4545454446934474" paint-order="fill" stroke-opacity="1" stroke-dasharray="" stroke-linecap="butt" stroke-linejoin="miter" stroke-miterlimit="10" transform="matrix(1.100000023841858,0,0,1.100000023841858,-40.0000114440918,-26.649986267089844)" clip-path="none"/>
<path d="M 357.8241 343.1858 L 356.1177 342.8238 L 358.3283 339.8246 L 358.6773 341.3759 L 357.8241 343.1858 Z M 349.2532 342.0482 L 349.4471 341.3242 L 348.7102 339.049 L 348.9041 338.3768 L 350.9984 337.0323 L 351.774 335.6879 L 354.5276 332.8955 L 355.0317 334.6019 L 354.1785 336.722 L 353.0538 338.1699 L 350.8045 339.1524 L 349.2532 342.0482 Z M 361.3921 283.5125 L 362.5943 283.5125 L 363.5639 284.495 L 365.1152 284.3916 L 365.6969 282.5301 L 366.6665 282.2715 L 369.4588 285.7878 L 371.4755 287.8562 L 372.8329 292.4066 L 372.7165 294.1648 L 373.6473 295.1473 L 373.4146 297.2157 L 372.7553 297.9396 L 372.8717 299.3875 L 374.1127 301.5076 L 376.9438 302.8003 L 378.9993 305.541 L 377.7583 309.2124 L 378.0685 311.3842 L 379.9301 313.4526 L 381.0935 315.4176 L 381.2875 316.7103 L 382.2182 318.3133 L 381.4814 320.2783 L 382.2182 322.0364 L 381.2099 324.1048 L 381.7528 326.3801 L 380.5118 328.0348 L 382.0243 329.6895 L 384.5064 330.3617 L 385.5535 331.9647 L 383.6144 333.9297 L 382.0631 334.1366 L 381.6753 333.4126 L 379.6198 335.6361 L 378.7278 335.5844 L 378.0685 333.8263 L 378.2236 336.0498 L 377.2541 337.808 L 376.6723 340.0315 L 373.531 343.3409 L 371.5143 344.8922 L 370.2345 345.3059 L 368.528 344.9956 L 368.2953 342.4618 L 369.5364 340.5486 L 370.2345 337.9114 L 369.7691 336.4118 L 369.6527 339.1524 L 368.6444 340.9623 L 367.3646 341.1174 L 368.1402 338.687 L 367.0543 340.6003 L 367.0155 343.0824 L 365.8908 343.7546 L 364.8825 342.8755 L 364.6886 341.1174 L 365.1927 338.5319 L 364.3395 338.1182 L 365.2703 336.4118 L 367.1707 335.9981 L 365.0764 335.3259 L 363.7578 336.9806 L 363.7966 339.3593 L 363.3312 342.1516 L 361.586 344.0131 L 358.7549 343.3409 L 359.7244 342.5653 L 358.91 342.255 L 358.6773 339.4627 L 359.802 338.1699 L 359.259 336.0498 L 359.802 334.7054 L 361.586 333.6195 L 359.9571 333.9297 L 359.1039 334.9122 L 359.3754 337.6528 L 357.5526 339.411 L 356.0401 341.7896 L 354.6827 341.7896 L 353.4805 340.29 L 355.7298 338.8939 L 357.126 336.4118 L 357.1648 335.3776 L 355.7686 338.0148 L 353.7907 339.7729 L 352.6272 339.3593 L 354.4112 337.446 L 355.2644 335.7396 L 355.4196 333.7229 L 355.0317 332.637 L 356.3116 329.8446 L 356.0013 327.7245 L 356.6218 326.5352 L 355.2644 326.8455 L 355.4971 330.1549 L 354.5664 331.9647 L 353.209 332.8955 L 353.2478 332.1716 L 351.774 331.8613 L 351.5413 334.0848 L 349.7573 336.722 L 348.2836 337.1874 L 347.8182 338.4285 L 345.8403 338.9973 L 345.0647 337.9114 L 345.181 334.6537 L 345.724 332.0164 L 345.724 330.31 L 346.2281 329.4309 L 346.616 326.0181 L 347.8958 326.2249 L 347.857 324.4668 L 348.5939 323.7946 L 348.7102 322.295 L 349.5634 320.33 L 349.098 318.0548 L 350.9984 316.7103 L 350.882 314.3834 L 351.6189 312.7286 L 351.1535 311.2291 L 352.1231 311.6944 L 352.2006 309.2641 L 352.9763 308.2816 L 353.9846 308.9021 L 353.5192 305.0239 L 357.2811 307.2991 L 358.5222 305.0756 L 358.8324 301.4559 L 360.4613 299.0772 L 360.9655 296.2849 L 360.0735 294.5268 L 360.4225 292.9237 L 360.4613 290.5451 L 360.8879 288.787 L 360.6552 286.5634 L 359.7632 284.7019 L 359.7632 284.7019 L 361.3921 283.5125 Z" fill="rgba(132,223,133,1)" fill-opacity="1" stroke="#000000" stroke-width="0.4545454446934474" paint-order="fill" stroke-opacity="1" stroke-dasharray="" stroke-linecap="butt" stroke-linejoin="miter" stroke-miterlimit="10" transform="matrix(1.100000023841858,0,0,1.100000023841858,-40.0000114440918,-26.649986267089844)" clip-path="none"/>
<path d="M 314.9695 215.7208 L 314.0775 211.3772 L 313.9999 205.896 L 314.5041 202.4314 L 314.2326 200.3113 L 315.8227 199.4322 L 316.6759 196.3813 L 318.4599 197.5707 L 320.1276 199.4839 L 320.3602 200.8284 L 321.2135 199.6908 L 322.726 200.2596 L 322.5321 198.7083 L 323.8119 197.6224 L 323.8894 195.554 L 326.3327 196.0194 L 325.9837 194.9852 L 326.9533 194.6749 L 327.0308 191.4689 L 325.7122 188.5214 L 325.9449 186.1428 L 325.2856 184.3846 L 325.5571 182.5231 L 327.6513 180.1444 L 326.992 177.2487 L 327.3411 176.2662 L 328.2331 176.2145 L 329.2414 177.4038 L 330.3661 177.0935 L 332.0338 174.6114 L 332.3828 170.4229 L 332.9258 169.699 L 332.8482 167.2169 L 333.7014 162.8216 L 333.236 161.1669 L 332.5767 160.7015 L 332.344 156.8232 L 331.5684 155.5305 L 331.3745 153.6689 L 331.8011 152.8416 L 332.7706 152.8933 L 334.4771 155.6856 L 337.7348 154.7031 L 340.4496 155.1168 L 341.6518 156.513 L 343.3195 156.3578 L 345.6852 157.0818 L 347.7406 158.8916 L 348.3612 158.6331 L 349.0593 162.3045 L 348.3612 166.7515 L 348.0509 167.2169 L 346.3057 166.9067 L 346.3057 170.1644 L 345.2586 170.5264 L 345.1422 173.0084 L 345.4525 176.4213 L 344.7932 179.8859 L 345.1422 182.3162 L 344.6768 183.9192 L 344.9095 185.4188 L 345.2198 187.4872 L 345.5301 192.2445 L 344.9095 194.2612 L 345.4137 197.3121 L 344.7156 199.8459 L 345.3361 201.9143 L 344.3278 203.4139 L 344.2502 205.7408 L 346.5772 210.4981 L 346.5384 211.584 L 345.4137 213.911 L 344.9871 216.5482 L 344.289 217.7375 L 345.9179 219.1337 L 345.8791 222.3914 L 344.4829 224.8218 L 344.3278 225.9594 L 345.2586 228.9586 L 346.2281 230.9236 L 343.7461 231.8026 L 342.8153 231.6992 L 341.264 230.5616 L 340.2556 229.424 L 339.1697 229.1137 L 338.1226 226.6316 L 336.8428 226.0628 L 336.1059 226.8902 L 336.0671 228.8034 L 336.6101 230.0962 L 335.0976 231.1821 L 332.1113 230.9236 L 327.7289 227.9761 L 326.9533 226.4765 L 325.6347 225.0286 L 325.1693 222.1846 L 320.8256 221.2538 L 319.5846 222.0812 L 318.8477 221.6158 L 317.7618 219.2888 L 315.5512 216.0311 L 314.9695 215.7208 Z" fill="rgba(246,206,222,1)" fill-opacity="1" stroke="#000000" stroke-width="0.4545454446934474" paint-order="fill" stroke-opacity="1" stroke-dasharray="" stroke-linecap="butt" stroke-linejoin="miter" stroke-miterlimit="10" transform="matrix(1.100000023841858,0,0,1.100000023841858,-40.0000114440918,-26.649986267089844)" clip-path="none"/>
<path d="M 361.3921 283.5125 L 359.7632 284.7019 L 359.7632 284.7019 L 359.7632 284.7019 L 359.7632 284.7019 L 359.7632 284.7019 L 359.7632 284.7019 L 359.7632 284.7019 L 358.2507 282.1681 L 358.5609 280.5651 L 357.9792 279.0138 L 358.9876 276.9454 L 357.5526 274.7219 L 359.3366 273.7394 L 357.5526 271.2573 L 356.8157 269.3957 L 355.8074 268.2064 L 354.4888 267.6376 L 353.7519 265.3106 L 354.2561 263.8628 L 351.6577 259.4674 L 350.533 253.0554 L 349.7186 251.0904 L 349.9125 248.0395 L 348.4775 246.4882 L 348.3612 244.3164 L 347.3528 243.0237 L 346.3445 240.2313 L 343.2031 234.5432 L 341.1864 233.3539 L 341.264 230.5616 L 342.8153 231.6992 L 343.7461 231.8026 L 346.2281 230.9236 L 345.2586 228.9586 L 344.3278 225.9594 L 344.4829 224.8218 L 345.8791 222.3914 L 345.9179 219.1337 L 344.289 217.7375 L 344.9871 216.5482 L 345.4137 213.911 L 346.5384 211.584 L 346.5772 210.4981 L 344.2502 205.7408 L 344.3278 203.4139 L 345.3361 201.9143 L 344.7156 199.8459 L 345.4137 197.3121 L 344.9095 194.2612 L 345.5301 192.2445 L 345.2198 187.4872 L 344.9095 185.4188 L 347.1589 184.85 L 347.8182 186.6599 L 349.2144 188.3663 L 350.7269 192.2445 L 349.5246 195.1403 L 349.7186 197.7775 L 350.1839 198.7083 L 351.6577 198.6566 L 352.8211 199.9493 L 352.9763 201.4489 L 352.4333 205.2237 L 354.4112 206.5682 L 356.777 205.4306 L 358.5222 205.7408 L 361.8962 205.3789 L 363.5251 205.7925 L 366.2787 205.9477 L 368.3729 205.6891 L 370.2345 208.2746 L 370.312 209.4639 L 372.2512 210.705 L 371.9409 214.0144 L 371.0101 214.2212 L 367.8687 217.3238 L 364.9213 217.6341 L 364.5334 218.72 L 361.5084 219.2371 L 360.5389 221.047 L 360.7328 225.3906 L 362.5943 226.8902 L 364.6498 227.1487 L 366.395 228.4932 L 365.8133 230.4582 L 365.9296 233.871 L 367.0543 235.0603 L 367.4421 233.7159 L 368.4505 232.8368 L 370.6999 232.4231 L 372.0572 231.4407 L 373.88 230.9236 L 374.6169 230.2513 L 377.3704 230.4065 L 377.9522 232.8885 L 379.6586 236.2497 L 380.4342 239.042 L 379.9689 239.9211 L 380.2791 241.2655 L 381.8304 244.5233 L 380.8996 247.4707 L 380.8221 248.6083 L 381.4814 251.349 L 380.3955 253.1071 L 380.5894 253.831 L 379.4259 256.52 L 379.9301 259.2606 L 380.9772 259.8811 L 381.4426 262.0012 L 382.0243 262.9837 L 381.9855 265.0004 L 381.4038 266.6034 L 379.5035 266.2931 L 375.3925 266.6034 L 372.9492 267.3273 L 371.8245 268.7235 L 370.2345 268.9821 L 369.5752 271.0504 L 367.5973 272.4983 L 368.1014 274.6701 L 366.9767 276.6351 L 365.154 277.7727 L 364.7661 280.1514 L 366.6665 282.2715 L 365.6969 282.5301 L 365.1152 284.3916 L 363.5639 284.495 L 362.5943 283.5125 L 361.3921 283.5125 Z" fill="rgba(238,187,76,1)" fill-opacity="1" stroke="#000000" stroke-width="0.4545454446934474" paint-order="fill" stroke-opacity="1" stroke-dasharray="" stroke-linecap="butt" stroke-linejoin="miter" stroke-miterlimit="10" transform="matrix(1.100000023841858,0,0,1.100000023841858,-40.0000114440918,-26.649986267089844)" clip-path="none"/>
<path d="M 414.0586 250.3148 L 411.7317 250.1079 L 411.6153 248.8669 L 410.2967 248.3498 L 409.7926 251.1421 L 409.5599 254.2964 L 406.0694 256.6234 L 404.363 259.5191 L 405.0223 260.9153 L 404.4406 262.7252 L 403.122 264.2247 L 402.8505 262.2081 L 400.2133 260.5016 L 399.6316 259.4157 L 399.1274 257.7093 L 397.3046 257.1922 L 399.4376 254.8652 L 396.8392 251.349 L 395.0164 251.0904 L 394.9777 250.1596 L 393.5427 247.3156 L 395.0164 247.2639 L 395.637 246.3331 L 395.2104 244.7818 L 397.1495 242.61 L 395.7533 238.2147 L 396.1799 236.3014 L 397.3434 235.9394 L 397.227 234.3364 L 396.335 233.9744 L 395.3655 232.268 L 396.4902 230.4065 L 397.8088 230.3547 L 398.2742 228.6483 L 396.529 226.9936 L 395.9084 227.3556 L 391.2933 225.5457 L 390.4401 224.8218 L 390.3238 223.5807 L 391.0219 221.5641 L 393.853 221.047 L 392.961 219.2888 L 392.1465 214.5315 L 393.0385 213.9627 L 393.3488 212.67 L 395.8309 212.4114 L 398.3905 211.4806 L 400.9889 208.7917 L 401.7258 208.8951 L 403.3547 207.8609 L 404.906 208.2229 L 404.1303 205.4823 L 402.4239 202.7934 L 401.9973 200.8284 L 396.4126 198.5014 L 396.4514 197.157 L 394.9001 193.8992 L 393.1161 193.1236 L 393.5039 191.0552 L 391.6036 187.4355 L 390.8667 185.2637 L 392.2241 184.3846 L 396.4902 184.3846 L 398.1578 183.5573 L 400.0582 183.5573 L 401.687 180.9718 L 400.8726 180.1961 L 398.9723 179.5239 L 399.0498 178.5931 L 397.4597 178.0243 L 396.9168 178.5414 L 393.9693 178.9551 L 392.1853 178.8517 L 391.2158 178.1794 L 390.1686 176.0076 L 390.8667 174.4563 L 391.1382 172.4396 L 392.1078 170.4229 L 393.31 169.5439 L 393.6591 167.7857 L 395.2491 166.2862 L 396.1799 163.7007 L 397.4985 162.5113 L 398.7396 159.719 L 397.8088 157.754 L 397.7312 156.3578 L 396.878 155.9959 L 395.8697 156.9267 L 395.8309 155.4271 L 399.4764 153.7724 L 401.2216 153.4104 L 402.3463 156.0476 L 404.4406 157.4955 L 405.5653 156.9267 L 406.147 158.8916 L 405.6428 160.7532 L 403.4322 161.8391 L 403.3547 162.4079 L 407.8922 163.6489 L 408.2025 164.8383 L 409.8313 164.89 L 414.1362 163.5972 L 417.6266 161.7874 L 421.0007 160.9083 L 421.2722 159.9258 L 423.793 158.1677 L 424.8401 157.9091 L 426.3527 156.4613 L 430.8126 154.7031 L 432.3639 154.2895 L 435.4665 154.7548 L 436.7851 154.1343 L 439.0345 154.2895 L 440.7022 155.3236 L 443.4169 154.2895 L 446.5195 153.7206 L 446.3256 155.1168 L 443.4169 157.3403 L 442.331 157.754 L 442.331 161.684 L 444.6967 162.3045 L 445.1621 164.0626 L 446.3256 166.0793 L 444.7355 167.734 L 445.1234 168.8716 L 446.1705 168.9234 L 446.9849 170.5781 L 446.248 172.2328 L 447.4503 173.1119 L 446.3644 175.7491 L 449.8548 176.2145 L 450.8632 177.5589 L 453.4228 177.7658 L 453.8106 178.5414 L 455.8273 176.9901 L 457.6889 178.3346 L 459.5504 178.5414 L 459.5116 179.5756 L 460.52 181.5406 L 459.3953 181.9025 L 457.9216 181.4372 L 457.9216 183.1436 L 456.7969 185.0051 L 455.711 185.6774 L 456.7193 188.78 L 456.7581 191.3655 L 454.3924 193.7441 L 454.3924 194.9334 L 452.3369 199.1737 L 454.5863 200.3113 L 456.952 200.4147 L 458.5033 199.8459 L 462.5755 200.725 L 463.6226 201.7592 L 464.7861 201.1386 L 466.5313 202.2245 L 467.0742 201.3972 L 469.0521 201.604 L 469.5563 203.4656 L 468.6255 205.9994 L 469.2848 208.9985 L 470.2544 209.7742 L 472.0772 209.8259 L 473.3958 210.6016 L 472.1547 212.4631 L 472.2323 213.3422 L 474.3265 215.6174 L 477.2352 213.3939 L 478.4375 213.3422 L 479.9888 214.9969 L 482.3933 214.9452 L 485.1856 213.549 L 487.1247 210.9635 L 488.7924 209.8259 L 491.1969 208.9985 L 492.787 207.8609 L 493.8341 207.8609 L 494.0668 209.3088 L 495.0364 211.2221 L 494.4546 213.4456 L 491.5072 215.9794 L 487.086 218.5132 L 485.6898 218.1512 L 484.9529 221.6675 L 483.867 223.7359 L 481.8891 224.7184 L 481.3462 227.9244 L 484.2548 228.1312 L 481.8115 229.7342 L 478.5538 229.2171 L 476.6147 230.5099 L 474.9471 232.268 L 473.6672 235.6809 L 472.6201 240.9553 L 470.2156 239.404 L 469.2848 238.1112 L 467.0742 238.7317 L 465.6393 240.7484 L 463.1184 241.2655 L 458.2318 239.7142 L 459.2014 240.9036 L 459.628 242.7134 L 460.4812 243.7993 L 460.1322 244.7818 L 458.6584 245.9711 L 455.5946 246.8502 L 453.0738 245.5057 L 451.7939 245.6092 L 449.6609 247.3673 L 449.2731 250.4182 L 449.467 251.8144 L 448.7301 253.1071 L 446.8298 254.0896 L 445.2009 252.6934 L 443.9599 253.6759 L 441.6329 254.0896 L 439.3448 255.6409 L 438.414 254.9687 L 437.3281 255.3823 L 434.5358 255.3306 L 433.0232 255.8994 L 432.5191 254.6584 L 430.3472 253.3657 L 428.5245 252.6934 L 428.0979 254.5033 L 428.1366 256.4683 L 425.1504 258.0196 L 424.8014 256.52 L 422.8235 255.6926 L 422.1642 256.0029 L 419.7209 255.3306 L 418.5962 254.0379 L 419.1779 252.0729 L 417.6654 250.4182 L 416.2304 250.8319 L 414.5628 249.384 L 414.0586 250.3148 Z" fill="rgba(234,60,165,1)" fill-opacity="1" stroke="#000000" stroke-width="0.4545454446934474" paint-order="fill" stroke-opacity="1" stroke-dasharray="" stroke-linecap="butt" stroke-linejoin="miter" stroke-miterlimit="10" transform="matrix(1.100000023841858,0,0,1.100000023841858,-40.0000114440918,-26.649986267089844)" clip-path="none"/>
<path d="M 406.0694 256.6234 L 409.5599 254.2964 L 409.7926 251.1421 L 410.2967 248.3498 L 411.6153 248.8669 L 411.7317 250.1079 L 412.7012 250.5733 L 414.0586 250.3148 L 414.5628 249.384 L 416.2304 250.8319 L 417.6654 250.4182 L 419.1779 252.0729 L 418.5962 254.0379 L 419.7209 255.3306 L 422.1642 256.0029 L 422.8235 255.6926 L 424.8014 256.52 L 425.1504 258.0196 L 424.5299 258.3298 L 424.7238 259.7777 L 422.9786 261.9495 L 423.793 264.173 L 422.9786 264.6901 L 423.9481 266.6551 L 423.8706 268.4132 L 422.0478 270.1714 L 421.5436 271.8261 L 420.5353 272.7052 L 421.8539 274.1013 L 422.6683 279.5826 L 422.3581 280.7719 L 419.6433 281.1856 L 417.2776 282.5301 L 415.2997 282.4266 L 414.3689 281.2373 L 413.8647 279.5309 L 412.8564 278.1347 L 409.0557 277.9796 L 405.7204 271.1539 L 405.5265 269.1372 L 404.363 267.3273 L 403.6649 266.9654 L 403.122 264.2247 L 403.122 264.173 L 403.122 264.173 L 404.4406 262.7252 L 405.0223 260.9153 L 404.363 259.5191 L 404.7896 258.2781 L 406.0694 256.6234 Z" fill="rgba(149,196,235,1)" fill-opacity="1" stroke="#000000" stroke-width="0.4545454446934474" paint-order="fill" stroke-opacity="1" stroke-dasharray="" stroke-linecap="butt" stroke-linejoin="miter" stroke-miterlimit="10" transform="matrix(1.100000023841858,0,0,1.100000023841858,-40.0000114440918,-26.649986267089844)" clip-path="none"/>
<path d="M 403.122 264.2247 L 403.6649 266.9654 L 404.363 267.3273 L 405.5265 269.1372 L 405.7204 271.1539 L 409.0557 277.9796 L 412.8564 278.1347 L 413.8647 279.5309 L 414.3689 281.2373 L 415.8426 284.5467 L 416.0365 286.1497 L 417.6654 287.7528 L 418.3635 286.3049 L 419.9923 286.7703 L 419.5657 288.2699 L 421.0007 290.4934 L 421.1558 292.1998 L 421.7375 292.6135 L 422.4744 294.5268 L 421.7375 295.0956 L 420.768 297.6811 L 422.3193 299.6977 L 422.7459 301.1456 L 426.2751 304.5068 L 427.3222 305.1273 L 428.4469 307.4025 L 429.6104 308.1782 L 429.8431 309.7295 L 432.4415 312.1081 L 433.6825 313.556 L 433.4498 314.2282 L 434.4194 315.4693 L 436.3197 315.7795 L 437.0954 316.4 L 438.6855 319.1407 L 438.9182 320.8988 L 437.9098 321.7779 L 437.522 322.9672 L 439.4611 325.3459 L 439.8489 326.8972 L 441.2839 328.9139 L 441.2063 330.0515 L 441.8268 332.637 L 442.4086 333.2575 L 444.6967 330.9822 L 445.1621 329.4827 L 446.791 330.2066 L 447.1788 331.1891 L 446.7522 333.6195 L 445.899 334.7571 L 445.7051 336.2049 L 444.5804 337.1874 L 442.7188 336.5669 L 441.8656 336.8255 L 440.8573 338.4285 L 439.6162 338.2216 L 440.2368 339.9798 L 440.0041 343.2375 L 439.3448 345.5127 L 439.3448 348.5636 L 439.8489 351.9248 L 439.6938 354.2 L 439.1121 354.8722 L 437.8323 353.5278 L 436.1258 354.1483 L 436.0095 356.3718 L 433.6438 355.6479 L 431.9761 357.2509 L 431.5107 355.2859 L 430.2309 354.0449 L 428.4081 350.7871 L 426.3914 347.8397 L 424.8014 346.8572 L 424.9953 345.6162 L 424.0645 342.7204 L 424.0257 340.2383 L 424.5687 338.3768 L 423.7154 336.3601 L 427.6713 335.9464 L 429.0674 336.6186 L 430.4248 335.7396 L 430.4248 334.9122 L 429.3001 333.1024 L 427.71 331.8096 L 427.2059 329.6895 L 425.8485 329.6378 L 424.4911 328.2416 L 424.2196 327.1557 L 422.9398 327.5694 L 421.9702 326.6386 L 421.3497 326.1732 L 421.1558 326.3284 L 420.225 325.7078 L 418.0144 322.8121 L 417.9369 321.3125 L 416.7734 319.2958 L 416.2304 317.0206 L 416.5407 314.9005 L 417.5103 313.7111 L 416.9673 310.5568 L 417.3163 309.8846 L 416.308 307.9196 L 415.6875 305.8512 L 415.9977 304.6102 L 414.9506 303.5243 L 414.4464 301.9213 L 415.1445 300.37 L 414.4464 300.4734 L 413.0891 303.1106 L 412.2746 302.8521 L 411.1887 304.0931 L 409.9865 299.6977 L 410.5682 298.0947 L 409.0557 294.6819 L 410.2579 292.1998 L 410.6458 290.2348 L 409.2884 288.9938 L 408.7842 286.46 L 408.0473 287.0805 L 407.6983 286.098 L 406.4573 285.1673 L 405.7204 283.6677 L 406.147 281.8578 L 405.9919 280.2031 L 404.906 278.9104 L 402.3463 279.9446 L 400.8338 279.3757 L 399.9806 279.7894 L 398.1578 276.48 L 398.7783 275.4975 L 398.4681 273.5842 L 399.7091 272.55 L 399.011 271.4641 L 396.4514 268.9303 L 395.8309 267.5342 L 396.6453 266.8102 L 395.0552 263.8111 L 395.0552 262.4666 L 393.7754 259.9328 L 396.0248 259.7777 L 397.6924 260.2431 L 397.9639 260.9153 L 399.6316 259.4157 L 400.2133 260.5016 L 402.8505 262.2081 L 403.122 264.173 L 403.122 264.2247 Z" fill="rgba(245,248,147,1)" fill-opacity="1" stroke="#000000" stroke-width="0.4545454446934474" paint-order="fill" stroke-opacity="1" stroke-dasharray="" stroke-linecap="butt" stroke-linejoin="miter" stroke-miterlimit="10" transform="matrix(1.100000023841858,0,0,1.100000023841858,-40.0000114440918,-26.649986267089844)" clip-path="none"/>
<path d="M 410.1416 86.1875 L 411.3826 86.3426 L 411.6929 85.4118 L 407.1553 78.9481 L 406.3797 75.0699 L 406.5348 74.0874 L 409.0169 71.7087 L 410.4131 71.1399 L 413.7096 67.8305 L 415.9202 67.9856 L 416.5407 65.7104 L 415.1833 63.3834 L 416.0365 60.1774 L 417.0837 59.0398 L 418.3247 58.7812 L 418.3247 56.868 L 420.3802 53.3 L 421.6988 54.5927 L 422.8235 53.9722 L 423.4052 54.4893 L 424.1808 56.9197 L 425.3055 57.7987 L 426.5466 57.2299 L 427.3222 57.5402 L 429.2226 59.5569 L 429.145 60.7979 L 430.3085 61.1082 L 431.7046 62.5043 L 431.7434 65.4001 L 431.4332 66.3309 L 432.8293 68.0373 L 432.0925 68.5027 L 433.2171 69.7954 L 433.3335 71.9155 L 434.3418 73.7771 L 435.1175 76.3109 L 435.8156 76.6212 L 436.9015 75.8972 L 437.4832 72.9497 L 439.1121 73.8805 L 439.6938 73.5703 L 440.8185 75.0699 L 442.2147 74.6562 L 442.8352 75.4318 L 442.7576 79.7755 L 443.3394 81.637 L 442.6801 84.5845 L 443.0679 86.4977 L 443.9987 87.4802 L 443.4945 88.7213 L 443.9599 90.738 L 443.5333 91.7722 L 444.2314 93.8406 L 443.8823 95.1333 L 444.3477 97.15 L 443.6496 99.115 L 443.5721 102.0624 L 442.331 104.3377 L 442.0208 105.6304 L 443.3006 107.4403 L 442.0595 109.1984 L 441.6717 108.1125 L 440.0429 108.9916 L 440.7797 111.8356 L 441.4778 111.8873 L 443.0291 114.1626 L 441.3227 115.9724 L 439.306 115.0933 L 438.2976 116.0758 L 437.3281 118.4545 L 435.6604 121.2468 L 434.497 121.6088 L 433.605 120.8331 L 431.7434 120.2643 L 431.5883 122.0225 L 430.8902 122.9015 L 431.0453 125.3319 L 429.7267 127.09 L 426.5466 129.4687 L 425.1892 128.1759 L 423.4052 132.0542 L 422.7071 132.4162 L 422.6683 135.0017 L 423.0949 136.4495 L 424.0645 137.432 L 423.5603 138.1042 L 421.8539 138.0008 L 419.1779 139.9141 L 419.2167 143.2752 L 418.7513 147.1018 L 421.2334 146.8949 L 422.2417 149.0667 L 421.3109 150.0492 L 422.8235 150.618 L 422.5908 154.0826 L 418.5962 158.2194 L 421.2722 159.9258 L 421.0007 160.9083 L 417.6266 161.7874 L 414.1362 163.5972 L 409.8313 164.89 L 408.2025 164.8383 L 407.8922 163.6489 L 403.3547 162.4079 L 403.4322 161.8391 L 405.6428 160.7532 L 406.147 158.8916 L 405.5653 156.9267 L 404.4406 157.4955 L 402.3463 156.0476 L 401.2216 153.4104 L 399.8642 150.9283 L 399.9418 148.5496 L 400.9502 147.1018 L 396.2187 145.1368 L 393.2325 145.5505 L 392.3017 146.0159 L 390.285 143.7923 L 389.6645 141.8791 L 387.2987 141.1551 L 386.2904 140.1726 L 384.4288 134.2777 L 387.1048 133.2952 L 388.0744 132.3644 L 387.9968 133.9675 L 389.1215 133.9157 L 389.2379 131.7956 L 387.5702 129.0033 L 387.1824 123.7289 L 387.3375 121.7639 L 387.958 120.5746 L 388.85 121.4019 L 391.6812 118.7647 L 391.5648 117.6271 L 390.4789 116.2309 L 389.7808 113.2835 L 390.8667 110.7497 L 391.5648 110.0775 L 391.4485 107.5437 L 390.0523 104.7513 L 389.742 103.4069 L 388.6949 101.8556 L 388.85 100.7697 L 391.0606 100.0457 L 391.5648 99.3735 L 391.2158 97.5637 L 389.6645 95.8572 L 390.0135 94.8748 L 392.6507 93.3235 L 392.8058 91.979 L 394.0469 91.4619 L 394.6286 89.9623 L 393.5427 89.0832 L 395.637 88.8764 L 397.8088 89.3935 L 402.4239 88.9798 L 404.1691 88.4627 L 407.9698 88.4627 L 408.9781 87.8939 L 410.1416 86.1875 Z" fill="rgba(216,197,192,1)" fill-opacity="1" stroke="#000000" stroke-width="0.4545454446934474" paint-order="fill" stroke-opacity="1" stroke-dasharray="" stroke-linecap="butt" stroke-linejoin="miter" stroke-miterlimit="10" transform="matrix(1.100000023841858,0,0,1.100000023841858,-40.0000114440918,-26.649986267089844)" clip-path="none"/>
<path d="M 401.2216 153.4104 L 399.4764 153.7724 L 395.8309 155.4271 L 395.8697 156.9267 L 396.878 155.9959 L 397.7312 156.3578 L 397.8088 157.754 L 398.7396 159.719 L 397.4985 162.5113 L 396.1799 163.7007 L 395.2491 166.2862 L 393.6591 167.7857 L 392.9998 167.2169 L 390.9831 167.8892 L 389.5869 167.0101 L 389.6257 165.0968 L 388.7337 164.89 L 385.825 168.8716 L 385.0106 171.3537 L 386.2904 175.6974 L 385.9026 184.488 L 384.7391 185.1086 L 384.8554 186.9184 L 386.2516 189.5039 L 385.7087 193.1236 L 386.717 194.4681 L 386.0965 195.8642 L 386.4843 200.001 L 387.3375 203.1036 L 386.6782 204.3964 L 385.2821 205.2237 L 384.0022 205.2237 L 382.7224 208.74 L 381.3262 210.4981 L 378.9217 210.4464 L 376.9438 207.8092 L 376.1294 207.7058 L 373.1044 208.4814 L 372.2512 210.705 L 370.312 209.4639 L 370.2345 208.2746 L 368.3729 205.6891 L 366.2787 205.9477 L 363.5251 205.7925 L 361.8962 205.3789 L 358.5222 205.7408 L 356.777 205.4306 L 354.4112 206.5682 L 352.4333 205.2237 L 352.9763 201.4489 L 352.8211 199.9493 L 351.6577 198.6566 L 350.1839 198.7083 L 349.7186 197.7775 L 349.5246 195.1403 L 350.7269 192.2445 L 349.2144 188.3663 L 347.8182 186.6599 L 347.1589 184.85 L 344.9095 185.4188 L 344.6768 183.9192 L 345.1422 182.3162 L 344.7932 179.8859 L 345.4525 176.4213 L 345.1422 173.0084 L 345.2586 170.5264 L 346.3057 170.1644 L 346.3057 166.9067 L 348.0509 167.2169 L 348.3612 166.7515 L 349.0593 162.3045 L 348.3612 158.6331 L 348.5163 157.1335 L 349.7186 155.4271 L 350.7657 151.704 L 352.0455 148.1877 L 352.8987 147.1535 L 353.6744 144.8265 L 354.7215 143.0167 L 356.0789 141.8791 L 357.0097 139.4487 L 358.5609 138.5179 L 358.7936 137.0183 L 359.9959 135.3119 L 360.4225 133.3986 L 361.1982 132.2093 L 360.8879 129.6755 L 358.5997 128.7447 L 358.0956 127.1417 L 359.4142 123.7289 L 361.1982 121.919 L 362.6719 121.6088 L 364.9601 119.2818 L 366.8604 116.5929 L 367.83 116.1792 L 367.7912 111.939 L 369.1486 111.2668 L 370.9713 109.095 L 369.7303 107.8539 L 369.8854 105.7855 L 368.9546 104.5445 L 369.42 101.2351 L 368.9934 99.3218 L 370.2345 97.9773 L 370.6999 96.426 L 372.4451 95.0299 L 373.5698 95.4953 L 376.2845 94.5645 L 378.34 91.9273 L 380.3955 91.7204 L 380.8609 90.6862 L 382.8388 89.8589 L 384.2737 87.8939 L 386.5231 87.17 L 389.1215 83.5503 L 391.7587 82.1024 L 397.1107 81.275 L 399.2049 81.4302 L 400.7562 80.0857 L 401.7258 80.4994 L 402.7729 79.9306 L 404.2079 80.396 L 406.1858 82.7229 L 406.2634 84.3259 L 410.1416 86.1875 L 408.9781 87.8939 L 407.9698 88.4627 L 404.1691 88.4627 L 402.4239 88.9798 L 397.8088 89.3935 L 395.637 88.8764 L 393.5427 89.0832 L 394.6286 89.9623 L 394.0469 91.4619 L 392.8058 91.979 L 392.6507 93.3235 L 390.0135 94.8748 L 389.6645 95.8572 L 391.2158 97.5637 L 391.5648 99.3735 L 391.0606 100.0457 L 388.85 100.7697 L 388.6949 101.8556 L 389.742 103.4069 L 390.0523 104.7513 L 391.4485 107.5437 L 391.5648 110.0775 L 390.8667 110.7497 L 389.7808 113.2835 L 390.4789 116.2309 L 391.5648 117.6271 L 391.6812 118.7647 L 388.85 121.4019 L 387.958 120.5746 L 387.3375 121.7639 L 387.1824 123.7289 L 387.5702 129.0033 L 389.2379 131.7956 L 389.1215 133.9157 L 387.9968 133.9675 L 388.0744 132.3644 L 387.1048 133.2952 L 384.4288 134.2777 L 386.2904 140.1726 L 387.2987 141.1551 L 389.6645 141.8791 L 390.285 143.7923 L 392.3017 146.0159 L 393.2325 145.5505 L 396.2187 145.1368 L 400.9502 147.1018 L 399.9418 148.5496 L 399.8642 150.9283 L 401.2216 153.4104 Z" fill="rgba(243,227,123,1)" fill-opacity="1" stroke="#000000" stroke-width="0.4545454446934474" paint-order="fill" stroke-opacity="1" stroke-dasharray="" stroke-linecap="butt" stroke-linejoin="miter" stroke-miterlimit="10" transform="matrix(1.100000023841858,0,0,1.100000023841858,-40.0000114440918,-26.649986267089844)" clip-path="none"/>
<path d="M 393.7754 259.9328 L 395.0552 262.4666 L 395.0552 263.8111 L 396.6453 266.8102 L 395.8309 267.5342 L 396.4514 268.9303 L 399.011 271.4641 L 399.7091 272.55 L 398.4681 273.5842 L 398.7783 275.4975 L 398.1578 276.48 L 399.9806 279.7894 L 400.8338 279.3757 L 402.3463 279.9446 L 404.906 278.9104 L 405.9919 280.2031 L 406.147 281.8578 L 405.7204 283.6677 L 406.4573 285.1673 L 407.6983 286.098 L 408.0473 287.0805 L 408.7842 286.46 L 409.2884 288.9938 L 410.6458 290.2348 L 410.2579 292.1998 L 409.0557 294.6819 L 410.5682 298.0947 L 409.9865 299.6977 L 411.1887 304.0931 L 410.4131 304.8687 L 408.5903 305.4375 L 408.3964 304.4551 L 406.1858 302.6452 L 403.7813 302.6969 L 403.5874 306.0064 L 402.9668 307.5577 L 402.23 307.4025 L 404.1303 309.2124 L 404.1303 309.9363 L 402.7729 311.591 L 402.9281 312.5735 L 404.0528 314.9522 L 403.3547 317.8996 L 402.4239 317.8996 L 402.23 318.9338 L 399.7867 316.9171 L 396.7617 316.5035 L 392.8834 316.5552 L 392.9222 314.6419 L 391.526 311.591 L 390.634 307.8162 L 385.7087 298.8704 L 384.3125 300.2148 L 382.4509 301.4042 L 381.2487 303.1623 L 379.6198 304.4033 L 378.9993 305.541 L 376.9438 302.8003 L 374.1127 301.5076 L 372.8717 299.3875 L 372.7553 297.9396 L 373.4146 297.2157 L 373.6473 295.1473 L 372.7165 294.1648 L 372.8329 292.4066 L 371.4755 287.8562 L 369.4588 285.7878 L 366.6665 282.2715 L 364.7661 280.1514 L 365.154 277.7727 L 366.9767 276.6351 L 368.1014 274.6701 L 367.5973 272.4983 L 369.5752 271.0504 L 370.2345 268.9821 L 371.8245 268.7235 L 372.9492 267.3273 L 375.3925 266.6034 L 379.5035 266.2931 L 381.4038 266.6034 L 381.9855 265.0004 L 382.0243 262.9837 L 381.4426 262.0012 L 380.9772 259.8811 L 382.7612 260.3465 L 384.4676 259.6226 L 387.8417 261.0704 L 389.0439 259.5708 L 393.7754 259.9328 Z" fill="rgba(234,103,90,1)" fill-opacity="1" stroke="#000000" stroke-width="0.4545454446934474" paint-order="fill" stroke-opacity="1" stroke-dasharray="" stroke-linecap="butt" stroke-linejoin="miter" stroke-miterlimit="10" transform="matrix(1.100000023841858,0,0,1.100000023841858,-40.0000114440918,-26.649986267089844)" clip-path="none"/>
<path d="M 393.7754 259.9328 L 389.0439 259.5708 L 387.8417 261.0704 L 384.4676 259.6226 L 382.7612 260.3465 L 380.9772 259.8811 L 379.9301 259.2606 L 379.4259 256.52 L 380.5894 253.831 L 380.3955 253.1071 L 381.4814 251.349 L 380.8221 248.6083 L 380.8996 247.4707 L 381.8304 244.5233 L 380.2791 241.2655 L 379.9689 239.9211 L 380.4342 239.042 L 379.6586 236.2497 L 377.9522 232.8885 L 377.3704 230.4065 L 374.6169 230.2513 L 373.88 230.9236 L 372.0572 231.4407 L 370.6999 232.4231 L 368.4505 232.8368 L 367.4421 233.7159 L 367.0543 235.0603 L 365.9296 233.871 L 365.8133 230.4582 L 366.395 228.4932 L 364.6498 227.1487 L 362.5943 226.8902 L 360.7328 225.3906 L 360.5389 221.047 L 361.5084 219.2371 L 364.5334 218.72 L 364.9213 217.6341 L 367.8687 217.3238 L 371.0101 214.2212 L 371.9409 214.0144 L 372.2512 210.705 L 373.1044 208.4814 L 376.1294 207.7058 L 376.9438 207.8092 L 378.9217 210.4464 L 381.3262 210.4981 L 382.7224 208.74 L 384.0022 205.2237 L 385.2821 205.2237 L 386.6782 204.3964 L 387.3375 203.1036 L 386.4843 200.001 L 386.0965 195.8642 L 386.717 194.4681 L 385.7087 193.1236 L 386.2516 189.5039 L 384.8554 186.9184 L 384.7391 185.1086 L 385.9026 184.488 L 386.2904 175.6974 L 385.0106 171.3537 L 385.825 168.8716 L 388.7337 164.89 L 389.6257 165.0968 L 389.5869 167.0101 L 390.9831 167.8892 L 392.9998 167.2169 L 393.6591 167.7857 L 393.31 169.5439 L 392.1078 170.4229 L 391.1382 172.4396 L 390.8667 174.4563 L 390.1686 176.0076 L 391.2158 178.1794 L 392.1853 178.8517 L 393.9693 178.9551 L 396.9168 178.5414 L 397.4597 178.0243 L 399.0498 178.5931 L 398.9723 179.5239 L 400.8726 180.1961 L 401.687 180.9718 L 400.0582 183.5573 L 398.1578 183.5573 L 396.4902 184.3846 L 392.2241 184.3846 L 390.8667 185.2637 L 391.6036 187.4355 L 393.5039 191.0552 L 393.1161 193.1236 L 394.9001 193.8992 L 396.4514 197.157 L 396.4126 198.5014 L 401.9973 200.8284 L 402.4239 202.7934 L 404.1303 205.4823 L 404.906 208.2229 L 403.3547 207.8609 L 401.7258 208.8951 L 400.9889 208.7917 L 398.3905 211.4806 L 395.8309 212.4114 L 393.3488 212.67 L 393.0385 213.9627 L 392.1465 214.5315 L 392.961 219.2888 L 393.853 221.047 L 391.0219 221.5641 L 390.3238 223.5807 L 390.4401 224.8218 L 391.2933 225.5457 L 395.9084 227.3556 L 396.529 226.9936 L 398.2742 228.6483 L 397.8088 230.3547 L 396.4902 230.4065 L 395.3655 232.268 L 396.335 233.9744 L 397.227 234.3364 L 397.3434 235.9394 L 396.1799 236.3014 L 395.7533 238.2147 L 397.1495 242.61 L 395.2104 244.7818 L 395.637 246.3331 L 395.0164 247.2639 L 393.5427 247.3156 L 394.9777 250.1596 L 395.0164 251.0904 L 396.8392 251.349 L 399.4376 254.8652 L 397.3046 257.1922 L 399.1274 257.7093 L 399.6316 259.4157 L 397.9639 260.9153 L 397.6924 260.2431 L 396.0248 259.7777 L 393.7754 259.9328 Z" fill="rgba(234,82,128,1)" fill-opacity="1" stroke="#000000" stroke-width="0.4545454446934474" paint-order="fill" stroke-opacity="1" stroke-dasharray="" stroke-linecap="butt" stroke-linejoin="miter" stroke-miterlimit="10" transform="matrix(1.100000023841858,0,0,1.100000023841858,-40.0000114440918,-26.649986267089844)" clip-path="none"/>
<path d="M 402.23 318.9338 L 402.6178 319.968 L 401.6095 322.4501 L 399.9806 323.9497 L 398.9335 326.0698 L 397.5373 327.3626 L 393.6203 328.2416 L 391.9138 327.3108 L 389.9747 325.4493 L 389.1991 322.657 L 389.8584 320.4851 L 387.958 321.4676 L 389.4318 324.26 L 389.5093 326.4318 L 391.4485 329.069 L 390.3238 330.7754 L 386.6782 331.7062 L 384.5064 330.3617 L 382.0243 329.6895 L 380.5118 328.0348 L 381.7528 326.3801 L 381.2099 324.1048 L 382.2182 322.0364 L 381.4814 320.2783 L 382.2182 318.3133 L 381.2875 316.7103 L 381.0935 315.4176 L 379.9301 313.4526 L 378.0685 311.3842 L 377.7583 309.2124 L 378.9993 305.541 L 379.6198 304.4033 L 381.2487 303.1623 L 382.4509 301.4042 L 384.3125 300.2148 L 385.7087 298.8704 L 390.634 307.8162 L 391.526 311.591 L 392.9222 314.6419 L 392.8834 316.5552 L 396.7617 316.5035 L 399.7867 316.9171 L 402.23 318.9338 Z" fill="rgba(216,197,192,1)" fill-opacity="1" stroke="#000000" stroke-width="0.4545454446934474" paint-order="fill" stroke-opacity="1" stroke-dasharray="" stroke-linecap="butt" stroke-linejoin="miter" stroke-miterlimit="10" transform="matrix(1.100000023841858,0,0,1.100000023841858,-40.0000114440918,-26.649986267089844)" clip-path="none"/><defs><filter id="f1" x="-100%" y="-100%" width="1000%" height="1000%"><feOffset result="offOut" in="SourceGraphic" dx="-9.799999999999999" dy="9.799999999999999"></feOffset><feColorMatrix result="matrixOut" in="offOut" type="matrix" values="0.2 0 0 0 0 0 0.2 0 0 0 0 0 0.2 0 0 0 0 0 1 0"></feColorMatrix><feGaussianBlur result="blurOut" in="matrixOut" stdDeviation="8"></feGaussianBlur><feBlend in="SourceGraphic" in2="blurOut" mode="normal"></feBlend></filter></defs>
<!-- tanintaryi -->
<text transform="matrix(1 0 0 1 463.8588 424.1167)" style="font-family:'Tahoma'; font-size:13px;" class="maplabels1"> Tanintharyi</text>
<text transform="matrix(1 0 0 1 430.8588 380.1167)" style="font-family:'Tahoma'; font-size:11px;"  >  Dawei </text>
<!-- Mon -->
<text transform="matrix(0.4592 -0.8883 0.8883 0.4592 405.3962 369.341)" style="font-family:'Tahoma'; font-size:13px;" class="maplabels1">Mon</text>
<text transform="matrix(1 0 0 1 420.8588 340.1167)" style="font-family:'Tahoma'; font-size:11px;" > Mawlamyine </text>
<!-- rakhine -->
<text transform="matrix(1 0 0 1 272.2465 259.1625)" style="font-family:'Tahoma'; font-size:13px;" class="maplabels1">Rakhine</text>
<text transform="matrix(1 0 0 1 275.2465 230.1625)" style="font-family:'Tahoma'; font-size:11px;" >Sittwe  </text>
<!-- ayeyarwady -->
<text transform="matrix(1 0 0 1 268.2466 339.5346)" style="font-family:'Tahoma'; font-size:13px;" class="maplabels1">Ayeyarwady</text>
<text transform="matrix(1 0 0 1 305.2466 330.5346)" style="font-family:'Tahoma'; font-size:11px;" >Pathein  </text>
<!-- chin -->
<text transform="matrix(1 0 0 1 290.0444 176.685)" style="font-family:'Tahoma'; font-size:13px;" class="maplabels1">Chin</text>
<!-- magway -->
<text transform="matrix(-4.950146e-02 -0.9988 0.9988 -4.950146e-02 363.4187 270.8469)" style="font-family:'Tahoma'; font-size:11px;" class="maplabels1">Magway</text>
<text transform="matrix(1 0 0 1 320.0444 240.685)"  style="font-family:'Tahoma'; font-size:11px;" >Magway  </text>
<!-- shan location -->
<text transform="matrix(1 0 0 1 428.4338 218.0493)" style="font-family:'Tahoma'; font-size:13px;" class="maplabels1">Shan</text>
<text transform="matrix(1 0 0 1 400.4338 240.0493)" style="font-family:'Tahoma'; font-size:11px;" >  Taunggyi </text>
<!-- kayah -->
<text transform="matrix(1 0 0 1 427.6654 277.8193)" style="font-family:'Tahoma'; font-size:13px;" class="maplabels1">Kayah</text>
<!-- kayin -->
<text transform="matrix(1 0 0 1 447.3961 324.1773)" style="font-family:'Tahoma'; font-size:13px;" class="maplabels1">Kayin</text>
<text transform="matrix(1 0 0 1 425.3961 314.1773)" style="font-family:'Tahoma'; font-size:11px;" > Hpa-An </text>
<!-- kachin -->
<text transform="matrix(1 0 0 1 396.8603 93.3545)" style="font-family:'Tahoma'; font-size:13px;" class="maplabels1">Kachin</text>
<text transform="matrix(1 0 0 1 400.8603 110.3545)" style="font-family:'Tahoma'; font-size:11px;" > Myitkyina </text>
<!-- sagaing -->
<text transform="matrix(1 0 0 1 311.543 102.1996)" style="font-family:'Tahoma'; font-size:13px;" class="maplabels1">Sagaing</text>
<text transform="matrix(1 0 0 1 320.543 195.1996)" style="font-family:'Tahoma'; font-size:11px;" >Sagaing </text>
<!-- bago -->
<text transform="matrix(1 0 0 1 372.4104 291.5276)" style="font-family:'Tahoma'; font-size:13px;" class="maplabels1">Bago</text>
<text transform="matrix(1 0 0 1 390.4104 300.5276)" style="font-family:'Tahoma'; font-size:11px;" > Bago</text>
<!-- Mandalay -->
<text transform="matrix(-2.118053e-02 -0.9998 0.9998 -2.118053e-02 389.2069 255.5794)" style="font-family:'Tahoma'; font-size:12px;" class="maplabels1">Mandalay</text>
<text transform="matrix(1 0 0 1 375.4104 227.5276)" style="font-family:'Tahoma'; font-size:11px;" >  Mandalay</text>
<!-- yangon -->
<text transform="matrix(0.4724 -0.8814 0.8814 0.4724 376.0116 377.7602)" style="font-family:'Tahoma'; font-size:13px;" class="maplabels1">Yangon</text>
<text transform="matrix(1 0 0 1 343.4104 320.5276)" style="font-family:'Tahoma'; font-size:11px;" >Yangon   </text>
<!-- <text x="643" y="519.33333333333" font-size="11">Created with paintmaps.com</text> -->
</svg>

